<svg xmlns="http://www.w3.org/2000/svg" width="232" height="232" viewBox="0 0 232 232">
  <g id="bug" transform="translate(-364 -78)">
    <g id="bug-2" data-name="bug">
      <g id="Group_7" data-name="Group 7">
        <circle id="Ellipse_3" data-name="Ellipse 3" cx="116" cy="116" r="116" transform="translate(364 78)" fill="#2680eb"/>
        <circle id="Ellipse_4" data-name="Ellipse 4" cx="116" cy="116" r="116" transform="translate(364 78)" fill="#297342"/>
      </g>
    </g>
    <g id="Group_23" data-name="Group 23" transform="translate(398 111)">
      <g id="Group_22" data-name="Group 22">
        <path id="Path_9" data-name="Path 9" d="M159.742,83.826H131.274V73.96a30.1,30.1,0,0,0,25.306-29.674V37.96a4.745,4.745,0,0,0-9.489,0v6.326a20.593,20.593,0,0,1-15.816,20V60.1a7.917,7.917,0,0,0-7.908-7.908h-4.745V34.8a20.593,20.593,0,0,0-16.6-20.173l3.533-7.95A4.745,4.745,0,1,0,96.888,2.82L91.814,14.236H72.675L67.6,2.819A4.745,4.745,0,0,0,58.93,6.673l3.533,7.95A20.593,20.593,0,0,0,45.868,34.8v17.4H41.124A7.917,7.917,0,0,0,33.216,60.1v4.186a20.592,20.592,0,0,1-15.816-20V37.959a4.745,4.745,0,1,0-9.489,0v6.326A30.1,30.1,0,0,0,33.216,73.96v9.865H4.747a4.745,4.745,0,0,0,0,9.489H33.215v9.865A30.1,30.1,0,0,0,7.91,132.854v6.326a4.745,4.745,0,1,0,9.489,0v-6.326a20.593,20.593,0,0,1,15.816-20v2.6a49.029,49.029,0,1,0,98.059,0v-2.6a20.593,20.593,0,0,1,15.816,20v6.326a4.745,4.745,0,0,0,9.489,0v-6.326a30.1,30.1,0,0,0-25.306-29.674V93.315h28.469a4.745,4.745,0,0,0,0-9.49ZM55.357,34.8A11.084,11.084,0,0,1,66.428,23.726H98.06A11.084,11.084,0,0,1,109.131,34.8v17.4H55.357Zm66.427,80.661a39.54,39.54,0,1,1-79.079,0V61.684H77.5V107.55a4.745,4.745,0,1,0,9.489,0V61.684h34.795Z" transform="translate(-0.002 0)" fill="#fff"/>
      </g>
    </g>
  </g>
</svg>
