<svg xmlns="http://www.w3.org/2000/svg" width="232" height="232" viewBox="0 0 232 232">
  <g id="dragon" transform="translate(-1372 -582)">
    <g id="Group_21" data-name="Group 21" transform="translate(1008 504)">
      <circle id="Ellipse_3" data-name="Ellipse 3" cx="116" cy="116" r="116" transform="translate(364 78)" fill="#11807c"/>
      <circle id="Ellipse_4" data-name="Ellipse 4" cx="116" cy="116" r="116" transform="translate(364 78)" fill="#11807c"/>
    </g>
    <g id="dragon_1_" data-name="dragon (1)" transform="translate(1403 598.996)">
      <g id="Group_73" data-name="Group 73" transform="translate(0 24.004)">
        <g id="Group_72" data-name="Group 72" transform="translate(0 0)">
          <g id="Group_71" data-name="Group 71">
            <path id="Path_23" data-name="Path 23" d="M58.253,189.675v-5.548H13.87a8.322,8.322,0,1,1,0-16.644h30.2a8.563,8.563,0,0,0,8.519-6.929,8.331,8.331,0,0,0-8.205-9.714H8.322a2.775,2.775,0,0,1-2.774-2.774V131.422a8.322,8.322,0,1,1,16.644,0V134.2H27.74v-2.774a13.857,13.857,0,0,0-.28-2.774h5.828V134.2h5.548v-5.548h5.548V134.2h5.548v-5.548h4.316a11.021,11.021,0,1,0-1.542-5.548H24.894A13.822,13.822,0,0,0,0,131.422v16.644a8.332,8.332,0,0,0,8.322,8.322H44.383a2.781,2.781,0,0,1,2.735,3.259,3.025,3.025,0,0,1-3.049,2.289H13.87a13.87,13.87,0,1,0,0,27.74ZM63.8,117.552a5.548,5.548,0,1,1-5.548,5.548A5.554,5.554,0,0,1,63.8,117.552Z" transform="translate(0 -81.49)" fill="#fff"/>
            <path id="Path_24" data-name="Path 24" d="M158.9,90.543a21.774,21.774,0,0,0,14.255-6.494,21.012,21.012,0,0,0,6.194-14.968l-.006-6.241H160.36a11.608,11.608,0,0,1-8.255-3.418,26.445,26.445,0,0,0-3.49-2.91,45.185,45.185,0,0,0,14.147-5.176,21.932,21.932,0,0,0,11.032-19.01v-3.85L143.663,38.52a41.385,41.385,0,0,1-13.1,2.128,1.149,1.149,0,0,1-.813-1.961L144.429,24h-6.7A55.932,55.932,0,0,0,98.9,39.594V28.4l-4.735,4.735a25.464,25.464,0,0,1-18.128,7.509H72.306A12.246,12.246,0,0,0,60.062,52.892v7.173h5.548V52.892a6.7,6.7,0,0,1,6.7-6.7h3.728a30.946,30.946,0,0,0,17.315-5.24V51.744H98.9v-4.4l2.913-2.913a50.418,50.418,0,0,1,28.722-14.377l-4.707,4.707A6.7,6.7,0,0,0,130.559,46.2a46.892,46.892,0,0,0,14.855-2.411l22.328-7.443a16.393,16.393,0,0,1-7.731,10.175,39.7,39.7,0,0,1-19.676,5.226h-5.376v.067c-.463-.022-.921-.067-1.387-.067a26.006,26.006,0,0,0-18.081,7.265,19.829,19.829,0,0,0-21.437-2.4l-1.945.974,2.483,4.963,1.945-.974a14.643,14.643,0,0,1,16.494,2.677l1.362,1.362-1.362,1.362a14.64,14.64,0,0,1-16.494,2.677l-1.945-.974-2.483,4.963,1.945.974a19.836,19.836,0,0,0,22.9-3.717l5.284-5.284-2.749-2.749a20.625,20.625,0,0,1,28.7.48,17.107,17.107,0,0,0,12.175,5.043H173.8v.7a15.621,15.621,0,0,1-4.71,11.182,16.1,16.1,0,0,1-11.459,4.763H144.906l6.025,6.025a36,36,0,0,0,22.525,10.488,10.707,10.707,0,0,1-2.771,4.866l-.477.477A10.688,10.688,0,0,1,162.7,110H151.6v2.774a19.442,19.442,0,0,0,18.017,19.368,25.247,25.247,0,0,1-22.566,13.92H125.488L141.1,161.673a61.225,61.225,0,0,1-64.536-14.131l-1.734-1.734a37.115,37.115,0,0,1-.9-8.072H68.383a42.86,42.86,0,0,0,5.989,21.848,37.126,37.126,0,0,1-21.343-10.61l-9.612-9.612V157.92l-3.226-1.842a21.174,21.174,0,0,1-10.644-18.341H24A26.731,26.731,0,0,0,37.44,160.9l11.526,6.588v-14.73l.141.141a42.663,42.663,0,0,0,30.372,12.58h4.9l-4.771-7.947a66.763,66.763,0,0,0,65.047,8.719l6.336-2.533-12.111-12.108h8.172a30.8,30.8,0,0,0,28.6-19.359l2.241-5.606H171.02a13.891,13.891,0,0,1-13.59-11.1H162.7a16.278,16.278,0,0,0,11.431-4.735l.477-.477A16.278,16.278,0,0,0,179.342,98.9V96.127h-2.774A30.494,30.494,0,0,1,158.9,90.543Z" transform="translate(-15.678 -24.004)" fill="#fff"/>
            <path id="Path_25" data-name="Path 25" d="M123.541,176h-5.548v4.877a25.638,25.638,0,0,1-25.637,25.637H83.887a19.392,19.392,0,0,0-18.6-24.966H32V187.1H65.288a13.87,13.87,0,0,1,0,27.74H32v5.548H65.288A19.4,19.4,0,0,0,81.2,212.066h6.33l1.8,5.548H84.705v11.573A21.717,21.717,0,0,0,106.42,250.9h15.5l-7.173-7.173a17.237,17.237,0,0,1-4.533-7.931l4.624,1.85a30.208,30.208,0,0,0,32.572-6.688l7.8-7.8h-6.7a23.868,23.868,0,0,1-12.6-3.559,29.366,29.366,0,0,0,14.083-7.873l10.76-10.76H134.637v5.548h12.721l-1.29,1.29a23.855,23.855,0,0,1-16.979,7.032h-6.7l5.212,5.212a29.381,29.381,0,0,0,14.771,8.028,24.659,24.659,0,0,1-25.484,4.413l-12.769-5.107v4.1a22.7,22.7,0,0,0,4.682,13.87h-2.383a16.172,16.172,0,0,1-16.169-16.167v-6.025h3.725A40.659,40.659,0,0,0,134.637,182.5V176h-5.548v5.548h-5.581c.006-.225.033-.447.033-.671ZM95.147,217.558l-1.8-5.54a31.224,31.224,0,0,0,6.02-.771l3.737,5.137A35.21,35.21,0,0,1,95.147,217.558Zm13.393-3.129-3.639-5.007a30.815,30.815,0,0,0,5.443-3.093l5.248,3.814A34.629,34.629,0,0,1,108.539,214.429Zm11.2-8.128-5.057-3.675a31.36,31.36,0,0,0,3.878-4.857l6,1.95A35.027,35.027,0,0,1,119.738,206.3Zm9.018-19.2a34.882,34.882,0,0,1-1.856,7.548l-5.706-1.856a30.793,30.793,0,0,0,1.728-5.692Z" transform="translate(-20.904 -123.299)" fill="#fff"/>
          </g>
        </g>
      </g>
    </g>
  </g>
</svg>
