<svg xmlns="http://www.w3.org/2000/svg" width="232" height="232" viewBox="0 0 232 232">
  <g id="electric" transform="translate(-868 -78)">
    <g id="Group_9" data-name="Group 9" transform="translate(504)">
      <circle id="Ellipse_3" data-name="Ellipse 3" cx="116" cy="116" r="116" transform="translate(364 78)" fill="#a2a70f"/>
      <circle id="Ellipse_4" data-name="Ellipse 4" cx="116" cy="116" r="116" transform="translate(364 78)" fill="#a2a70f"/>
    </g>
    <g id="flash" transform="translate(823.318 107)">
      <g id="Group_30" data-name="Group 30" transform="translate(110.682)">
        <g id="Group_29" data-name="Group 29" transform="translate(0)">
          <path id="Path_14" data-name="Path 14" d="M209.211,59.785a2.789,2.789,0,0,0-2.612-1.741H172.353L206.309,4.353a2.636,2.636,0,0,0,0-2.9A3.048,3.048,0,0,0,203.7,0H157.262a3.048,3.048,0,0,0-2.612,1.451L111.117,88.517a2.636,2.636,0,0,0,0,2.9,3.463,3.463,0,0,0,2.612,1.451h29.893l-32.5,77.489a2.9,2.9,0,0,0,1.161,3.483,2.176,2.176,0,0,0,1.451.29,3.3,3.3,0,0,0,2.322-.871L208.922,62.978A3.114,3.114,0,0,0,209.211,59.785Zm-85.325,94.9,26.7-63.848a2.822,2.822,0,0,0-.29-2.612,3.583,3.583,0,0,0-2.322-1.161h-29.6L159,5.8h39.47l-34.246,53.69a2.636,2.636,0,0,0,0,2.9,3.048,3.048,0,0,0,2.612,1.451h33.666Z" transform="translate(-110.682)" fill="#fff"/>
        </g>
      </g>
    </g>
  </g>
</svg>
