<svg xmlns="http://www.w3.org/2000/svg" width="232" height="232" viewBox="0 0 232 232">
  <g id="fairy" transform="translate(-1120 -78)">
    <g id="Group_10" data-name="Group 10" transform="translate(756)">
      <circle id="Ellipse_3" data-name="Ellipse 3" cx="116" cy="116" r="116" transform="translate(364 78)" fill="#b20f4c"/>
      <circle id="Ellipse_4" data-name="Ellipse 4" cx="116" cy="116" r="116" transform="translate(364 78)" fill="#b20f4c"/>
    </g>
    <g id="ui_1_" data-name="ui (1)" transform="translate(1184.285 98.845)">
      <g id="Group_32" data-name="Group 32" transform="translate(26.268 25.679)">
        <g id="Group_31" data-name="Group 31">
          <path id="Path_20" data-name="Path 20" d="M237.012,88.534a7.259,7.259,0,0,0-6.906-4.994h-9.293l-2.847-8.762a7.273,7.273,0,0,0-13.833,0l-2.847,8.762H192a7.273,7.273,0,0,0-4.325,13.119l7.6,5.622-2.9,9.014a7.185,7.185,0,0,0,1.034,6.5,7.324,7.324,0,0,0,5.9,3.008,7.222,7.222,0,0,0,4.276-1.4l4.5-3.274v2.961h5.77v-3.117l4.687,3.389a7.222,7.222,0,0,0,4.256,1.387,7.322,7.322,0,0,0,5.9-3.013,7.184,7.184,0,0,0,1.028-6.5l-2.887-8.939,7.605-5.631A7.261,7.261,0,0,0,237.012,88.534ZM231.135,92.2l-9.806,7.261a1.73,1.73,0,0,0-.617,1.922l3.729,11.545a1.736,1.736,0,0,1-1.652,2.269,1.707,1.707,0,0,1-1.008-.336l-9.716-7.025a1.73,1.73,0,0,0-2.032,0l-9.715,7.075a1.707,1.707,0,0,1-1.012.339,1.736,1.736,0,0,1-1.653-2.267l3.734-11.619a1.73,1.73,0,0,0-.618-1.92l-9.8-7.249A1.73,1.73,0,0,1,192,89.083h12.058a1.73,1.73,0,0,0,1.645-1.2l3.7-11.4a1.73,1.73,0,0,1,3.29,0l3.7,11.4a1.73,1.73,0,0,0,1.645,1.2h12.064A1.73,1.73,0,0,1,231.135,92.2Z" transform="translate(-184.723 -69.754)" fill="#fff"/>
        </g>
      </g>
      <g id="Group_34" data-name="Group 34" transform="translate(49.622 77.703)">
        <g id="Group_33" data-name="Group 33">
          <rect id="Rectangle_3" data-name="Rectangle 3" width="5.77" height="5.386" fill="#fff"/>
        </g>
      </g>
      <g id="Group_36" data-name="Group 36" transform="translate(49.622 85.781)">
        <g id="Group_35" data-name="Group 35">
          <rect id="Rectangle_4" data-name="Rectangle 4" width="5.77" height="102.707" fill="#fff"/>
        </g>
      </g>
      <g id="Group_38" data-name="Group 38" transform="translate(49.622)">
        <g id="Group_37" data-name="Group 37">
          <rect id="Rectangle_5" data-name="Rectangle 5" width="5.77" height="16.926" fill="#fff"/>
        </g>
      </g>
      <g id="Group_40" data-name="Group 40" transform="translate(13.32 12.507)">
        <g id="Group_39" data-name="Group 39" transform="translate(0 0)">
          <rect id="Rectangle_6" data-name="Rectangle 6" width="5.77" height="16.629" transform="translate(0 4.08) rotate(-45)" fill="#fff"/>
        </g>
      </g>
      <g id="Group_42" data-name="Group 42" transform="translate(0 49.623)">
        <g id="Group_41" data-name="Group 41">
          <rect id="Rectangle_7" data-name="Rectangle 7" width="16.541" height="5.77" fill="#fff"/>
        </g>
      </g>
      <g id="Group_44" data-name="Group 44" transform="translate(13.323 75.216)">
        <g id="Group_43" data-name="Group 43" transform="translate(0 0)">
          <rect id="Rectangle_8" data-name="Rectangle 8" width="16.629" height="5.77" transform="translate(0 11.759) rotate(-45)" fill="#fff"/>
        </g>
      </g>
      <g id="Group_46" data-name="Group 46" transform="translate(76.028 75.219)">
        <g id="Group_45" data-name="Group 45" transform="translate(0 0)">
          <rect id="Rectangle_9" data-name="Rectangle 9" width="5.77" height="16.629" transform="translate(0 4.08) rotate(-45)" fill="#fff"/>
        </g>
      </g>
      <g id="Group_48" data-name="Group 48" transform="translate(88.474 49.623)">
        <g id="Group_47" data-name="Group 47">
          <rect id="Rectangle_10" data-name="Rectangle 10" width="16.541" height="5.77" fill="#fff"/>
        </g>
      </g>
      <g id="Group_50" data-name="Group 50" transform="translate(76.031 12.504)">
        <g id="Group_49" data-name="Group 49" transform="translate(0 0)">
          <rect id="Rectangle_11" data-name="Rectangle 11" width="16.629" height="5.77" transform="translate(0 11.759) rotate(-45)" fill="#fff"/>
        </g>
      </g>
      <g id="Group_52" data-name="Group 52" transform="translate(11.069 32.262)">
        <g id="Group_51" data-name="Group 51" transform="translate(0 0)">
          <rect id="Rectangle_12" data-name="Rectangle 12" width="5.77" height="8.314" transform="translate(0 5.248) rotate(-65.431)" fill="#fff"/>
        </g>
      </g>
      <g id="Group_54" data-name="Group 54" transform="translate(10.036 63.2)">
        <g id="Group_53" data-name="Group 53" transform="translate(0 0)">
          <rect id="Rectangle_13" data-name="Rectangle 13" width="8.314" height="5.77" transform="matrix(0.937, -0.349, 0.349, 0.937, 0, 2.903)" fill="#fff"/>
        </g>
      </g>
      <g id="Group_56" data-name="Group 56" transform="translate(31.526 84.891)">
        <g id="Group_55" data-name="Group 55" transform="translate(0)">
          <rect id="Rectangle_14" data-name="Rectangle 14" width="8.314" height="5.77" transform="translate(0 7.562) rotate(-65.437)" fill="#fff"/>
        </g>
      </g>
      <g id="Group_58" data-name="Group 58" transform="translate(62.467 86.074)">
        <g id="Group_57" data-name="Group 57" transform="translate(0 0)">
          <rect id="Rectangle_15" data-name="Rectangle 15" width="5.77" height="8.314" transform="matrix(0.937, -0.349, 0.349, 0.937, 0, 2.014)" fill="#fff"/>
        </g>
      </g>
      <g id="Group_60" data-name="Group 60" transform="translate(84.16 65.673)">
        <g id="Group_59" data-name="Group 59" transform="translate(0 0)">
          <rect id="Rectangle_16" data-name="Rectangle 16" width="5.77" height="8.314" transform="translate(0 5.248) rotate(-65.431)" fill="#fff"/>
        </g>
      </g>
      <g id="Group_62" data-name="Group 62" transform="translate(85.348 35.142)">
        <g id="Group_61" data-name="Group 61" transform="translate(0)">
          <rect id="Rectangle_17" data-name="Rectangle 17" width="8.314" height="5.77" transform="matrix(0.937, -0.349, 0.349, 0.937, 0, 2.903)" fill="#fff"/>
        </g>
      </g>
      <g id="Group_64" data-name="Group 64" transform="translate(64.953 11.792)">
        <g id="Group_63" data-name="Group 63" transform="translate(0)">
          <rect id="Rectangle_18" data-name="Rectangle 18" width="8.314" height="5.77" transform="translate(0 7.562) rotate(-65.437)" fill="#fff"/>
        </g>
      </g>
      <g id="Group_66" data-name="Group 66" transform="translate(34.413 10.763)">
        <g id="Group_65" data-name="Group 65" transform="translate(0 0)">
          <rect id="Rectangle_19" data-name="Rectangle 19" width="5.77" height="8.314" transform="matrix(0.937, -0.349, 0.349, 0.937, 0, 2.014)" fill="#fff"/>
        </g>
      </g>
    </g>
  </g>
</svg>
