<svg xmlns="http://www.w3.org/2000/svg" width="232" height="232" viewBox="0 0 232 232">
  <g id="figthing" transform="translate(-1372 -78)">
    <g id="Group_11" data-name="Group 11" transform="translate(1008)">
      <circle id="Ellipse_3" data-name="Ellipse 3" cx="116" cy="116" r="116" transform="translate(364 78)" fill="#bb6315"/>
      <circle id="Ellipse_4" data-name="Ellipse 4" cx="116" cy="116" r="116" transform="translate(364 78)" fill="#bb6315"/>
    </g>
    <g id="miscellaneous" transform="translate(1411.533 123.845)">
      <path id="Path_18" data-name="Path 18" d="M399.25,162.513a2.879,2.879,0,1,1,2.823-2.316,2.9,2.9,0,0,1-2.823,2.316Z" transform="translate(-282.209 -112.6)" fill="#fff"/>
      <path id="Path_19" data-name="Path 19" d="M146.624,125.405l-25.117-25.117,4.82-4.82a2.88,2.88,0,0,0,0-4.073L113.715,78.782a2.88,2.88,0,0,0-4.073,0l-4.892,4.892L96.273,75.2,109.9,61.682a2.88,2.88,0,1,0-4.056-4.09L92.2,71.124,77.808,56.731,125.318,9.22l14.075.309.309,14.082L124.239,39.194a2.88,2.88,0,0,0,4.089,4.058L144.654,26.8a2.881,2.881,0,0,0,.835-2.092l-.4-18.061a2.88,2.88,0,0,0-2.816-2.816l-18.061-.4a2.876,2.876,0,0,0-2.1.843L73.734,52.658,25.353,4.277a2.9,2.9,0,0,0-2.1-.843l-18.061.4A2.88,2.88,0,0,0,2.375,6.647l-.4,18.061a2.881,2.881,0,0,0,.843,2.1L51.2,75.189l-8.485,8.485-4.892-4.892a2.88,2.88,0,0,0-4.073,0L21.141,91.395a2.88,2.88,0,0,0,0,4.073l4.82,4.82L.844,125.405a2.881,2.881,0,0,0,0,4.073l18.6,18.6a2.88,2.88,0,0,0,4.073,0l25.117-25.117,4.82,4.82a2.88,2.88,0,0,0,4.073,0l12.613-12.613a2.881,2.881,0,0,0,0-4.073L65.249,106.2l8.485-8.485,8.485,8.485L77.327,111.1a2.881,2.881,0,0,0,0,4.073l12.613,12.613a2.88,2.88,0,0,0,4.073,0l4.82-4.82,25.117,25.117a2.88,2.88,0,0,0,4.073,0l18.6-18.6a2.88,2.88,0,0,0,0-4.074ZM21.481,141.969,6.954,127.442l23.08-23.08,14.527,14.527Zm34.011-20.3L27.25,93.431l8.539-8.54,28.241,28.241Zm5.684-19.541L46.792,87.747l8.485-8.485L69.661,93.646Zm14.6-10.516-.005-.006L57.313,73.152l-.005-.005L7.765,23.6,8.074,9.529l14.075-.309,78.527,78.527-5,5L43.727,40.8a2.88,2.88,0,1,0-4.073,4.073L91.6,96.824l-5.307,5.307Zm16.2,30.057-8.539-8.54,28.241-28.241,8.539,8.54Zm34.011,20.3-23.08-23.081,14.527-14.527,23.08,23.08Z" transform="translate(0 -3.433)" fill="#fff"/>
    </g>
  </g>
</svg>
