<svg xmlns="http://www.w3.org/2000/svg" width="232" height="232" viewBox="0 0 232 232">
  <g id="fire" transform="translate(-98 -330)">
    <g id="Group_104" data-name="Group 104">
      <g id="Group_103" data-name="Group 103">
        <circle id="Ellipse_2" data-name="Ellipse 2" cx="116" cy="116" r="116" transform="translate(98 330)" fill="#d8123b"/>
      </g>
    </g>
    <g id="fire-2" data-name="fire" transform="translate(141 349.712)">
      <g id="Group_28" data-name="Group 28" transform="translate(0 0)">
        <g id="Group_27" data-name="Group 27">
          <path id="Path_13" data-name="Path 13" d="M204.076,111.389l-.133-1.831c-2.143-27.9-15.136-45.4-26.6-60.825-10.613-14.287-19.78-26.625-19.78-44.829A3.9,3.9,0,0,0,155.448.436a3.861,3.861,0,0,0-4.05.3C134.183,13.052,119.82,33.814,114.8,53.625c-3.483,13.792-3.944,29.3-4.009,39.537-15.9-3.4-19.5-27.177-19.536-27.436A3.9,3.9,0,0,0,85.7,62.769c-.834.4-20.462,10.377-21.6,50.2-.08,1.325-.084,2.65-.084,3.978a70.167,70.167,0,0,0,140.333,0C204.342,115.009,204.209,113.2,204.076,111.389Zm-69.9,67.932c-12.9,0-23.389-11.177-23.389-24.915,0-.468,0-.94.03-1.519a31.6,31.6,0,0,1,2.463-12.38c2.261,4.858,6.308,9.323,12.871,9.323a3.9,3.9,0,0,0,3.9-3.9c0-5.55.114-11.953,1.5-17.732a37.674,37.674,0,0,1,7.892-14.945c1.656,5.672,4.884,10.263,8.036,14.744,4.511,6.411,9.174,13.038,9.993,24.341.049.67.1,1.344.1,2.067C157.565,168.144,147.073,179.321,134.176,179.321Zm24.636-5.093a33.4,33.4,0,0,0,6.55-19.822c0-.917-.057-1.77-.171-3.365-.925-12.726-6.456-20.591-11.34-27.531-4.161-5.908-7.75-11.013-7.75-18.254a3.9,3.9,0,0,0-6.247-3.11,45.539,45.539,0,0,0-15.889,24.238,71.367,71.367,0,0,0-1.637,13.834c-2.7-2.908-3.54-8.3-3.548-8.371a3.906,3.906,0,0,0-5.641-2.943c-.982.5-9.612,5.451-10.107,23.655-.034.617-.038,1.233-.038,1.846a33.4,33.4,0,0,0,6.55,19.822,62.45,62.45,0,0,1-37.735-57.277c0-1.169,0-2.333.076-3.632.67-23.366,8.147-34.954,13.027-40.066,3.4,12.182,12.319,28.105,29.777,28.105a3.9,3.9,0,0,0,3.9-3.9c0-13.046.293-28.121,3.78-41.924,3.959-15.638,14.8-32.525,27.9-43.957,2.174,16.7,11.268,28.939,20.827,41.8,11.363,15.3,23.111,31.113,25.079,56.725l.133,1.865c.122,1.622.247,3.24.247,4.979A62.453,62.453,0,0,1,158.811,174.228Z" transform="translate(-64.009 0.001)" fill="#fff"/>
        </g>
      </g>
    </g>
  </g>
</svg>
