<svg xmlns="http://www.w3.org/2000/svg" width="232" height="232" viewBox="0 0 232 232">
  <g id="flying" transform="translate(-364 -330)">
    <g id="Group_106" data-name="Group 106">
      <g id="Group_105" data-name="Group 105">
        <g id="Group_12" data-name="Group 12" transform="translate(0 252)">
          <circle id="Ellipse_3" data-name="Ellipse 3" cx="116" cy="116" r="116" transform="translate(364 78)" fill="#405773"/>
          <circle id="Ellipse_4" data-name="Ellipse 4" cx="116" cy="116" r="116" transform="translate(364 78)" fill="#405773"/>
        </g>
      </g>
    </g>
    <g id="garden" transform="translate(389.778 364)">
      <g id="Butterfly" transform="translate(0 0)">
        <path id="Path_15" data-name="Path 15" d="M171.156,42.3a19.876,19.876,0,0,0-22.173-3.463L112.995,55.705V51.941a22.587,22.587,0,0,0-6.475-15.773L133.248,9.439a3.767,3.767,0,1,0-5.308-5.346L100.346,31.688a22.323,22.323,0,0,0-19.876,0L52.763,4.094a3.767,3.767,0,1,0-5.308,5.346L74.183,36.167a22.587,22.587,0,0,0-6.362,15.773v3.764L31.833,38.84A19.876,19.876,0,0,0,9.66,42.3,31.735,31.735,0,0,0,1.792,75.694L5.556,86.988a24.281,24.281,0,0,0,18.6,17.392,37.231,37.231,0,0,0-5.27,19.086A37.645,37.645,0,0,0,78.55,153.958a22.587,22.587,0,0,0,23.716,0,37.645,37.645,0,0,0,54.4-49.578,24.281,24.281,0,0,0,18.559-17.354l3.765-11.293a31.735,31.735,0,0,0-7.83-33.429ZM75.35,100.879V85.821h30.116v22.587H75.35Zm30.116-48.938V78.292H75.35V51.941a15.058,15.058,0,0,1,30.116,0ZM12.709,84.654,8.944,73.36a24.243,24.243,0,0,1,5.722-25.373,13.176,13.176,0,0,1,8.621-3.576,12.46,12.46,0,0,1,5.346,1.242L67.821,64.062V97.114H27.165c-6.249,0-12.046-4.894-14.456-12.46Zm13.7,38.812a29.852,29.852,0,0,1,6.663-18.822H67.821v30.116a22.06,22.06,0,0,0,.3,3.539v.414a21.721,21.721,0,0,0,.9,3.5A23.453,23.453,0,0,0,72.79,148.8a30.116,30.116,0,0,1-46.378-25.335Zm54.51,22.888a15.058,15.058,0,0,1-4.028-5.12,17.429,17.429,0,0,1-.979-2.786s0,0,0-.339a12.838,12.838,0,0,1-.565-3.35V115.937h30.116v18.822a13.364,13.364,0,0,1-.376,3.237v.3a18.822,18.822,0,0,1-.979,2.786,15.472,15.472,0,0,1-4.028,5.12,14.719,14.719,0,0,1-18.822,0Zm43.367,7.228a30.116,30.116,0,0,1-16.225-4.781,23.453,23.453,0,0,0,3.764-6.588,21.723,21.723,0,0,0,.9-3.5s0-.264,0-.414a22.06,22.06,0,0,0,.264-3.539V104.643h34.746a30.064,30.064,0,0,1-23.453,48.938Zm47.583-80.259-3.764,11.293c-2.409,7.6-8.207,12.5-14.456,12.5H112.995V64.062l39.188-18.408a12.423,12.423,0,0,1,13.966,2.3A24.243,24.243,0,0,1,171.871,73.323Z" transform="translate(0.022 -2.999)" fill="#fff"/>
        <path id="Path_16" data-name="Path 16" d="M49.058,18A15.058,15.058,0,1,0,64.116,33.058,15.058,15.058,0,0,0,49.058,18Zm0,22.587a7.529,7.529,0,1,1,7.529-7.529A7.529,7.529,0,0,1,49.058,40.587Z" transform="translate(94.075 38.47)" fill="#fff"/>
        <path id="Path_17" data-name="Path 17" d="M36.116,33.058A15.058,15.058,0,1,0,21.058,48.116,15.058,15.058,0,0,0,36.116,33.058Zm-22.587,0a7.529,7.529,0,1,1,7.529,7.529A7.529,7.529,0,0,1,13.529,33.058Z" transform="translate(16.669 38.47)" fill="#fff"/>
      </g>
    </g>
  </g>
</svg>
