<svg xmlns="http://www.w3.org/2000/svg" width="232" height="232" viewBox="0 0 232 232">
  <g id="ghost" transform="translate(-616 -330)">
    <g id="Group_107" data-name="Group 107">
      <g id="Group_13" data-name="Group 13" transform="translate(252 252)">
        <circle id="Ellipse_3" data-name="Ellipse 3" cx="116" cy="116" r="116" transform="translate(364 78)" fill="#140d74"/>
        <circle id="Ellipse_4" data-name="Ellipse 4" cx="116" cy="116" r="116" transform="translate(364 78)" fill="#140d74"/>
      </g>
    </g>
    <g id="paranormal" transform="translate(657.596 355)">
      <g id="Group_77" data-name="Group 77" transform="translate(0 0)">
        <g id="Group_76" data-name="Group 76">
          <path id="Path_26" data-name="Path 26" d="M161.383,274.787a3.447,3.447,0,1,1,3.379-2.772A3.477,3.477,0,0,1,161.383,274.787Z" transform="translate(-119.951 -175.525)" fill="#fff"/>
          <path id="Path_27" data-name="Path 27" d="M183.379,70.2,165.3,61.212c-.7-9.191-1.153-15.862-1.174-16.6a44.217,44.217,0,0,0-4.493-19.517v0A44.534,44.534,0,0,0,142.229,6.2h0A44.549,44.549,0,0,0,75.008,44.609c-.021.709-.444,7.041-1.172,16.607L55.756,70.2a14.411,14.411,0,0,0,6.407,27.314,14.227,14.227,0,0,0,6.382-1.505l2.374-1.18c-.648,6.109-1.029,8.322-1.217,9.123,0,.02-.009.041-.014.061l-5.762,26.675a3.447,3.447,0,0,0,2.564,4.08l-2.612,19.276A3.448,3.448,0,0,0,66.7,157.9l6.779,1.184a6.9,6.9,0,0,1,4.725,3.25l.824,1.362a13.825,13.825,0,0,0,13.316,6.606l1.6-.176a6.882,6.882,0,0,1,5.415,1.782l1.066.983a13.77,13.77,0,0,0,14.928,2.464l1.421-.631a6.9,6.9,0,0,1,5.583,0l1.422.631a13.765,13.765,0,0,0,14.929-2.464l1.067-.983a6.878,6.878,0,0,1,5.414-1.782l1.6.176a13.825,13.825,0,0,0,13.312-6.6l.831-1.376a6.9,6.9,0,0,1,4.721-3.243l6.779-1.184a3.448,3.448,0,0,0,2.824-3.859l-2.612-19.276a3.447,3.447,0,0,0,2.564-4.08l-5.762-26.675c0-.021-.009-.041-.014-.061-.187-.8-.568-3.005-1.218-9.124l2.375,1.181A14.4,14.4,0,0,0,183.379,70.2ZM152.391,26.128a8.7,8.7,0,0,1-11.789-12.8A37.622,37.622,0,0,1,152.391,26.128Zm12.075,126.166a13.787,13.787,0,0,0-9.439,6.475l-.832,1.377a6.912,6.912,0,0,1-6.652,3.3l-1.6-.176a13.773,13.773,0,0,0-10.841,3.566l-1.066.983a6.875,6.875,0,0,1-7.456,1.232l-1.424-.632a13.813,13.813,0,0,0-11.177,0l-1.423.632a6.876,6.876,0,0,1-7.456-1.232l-1.066-.982a13.77,13.77,0,0,0-10.842-3.567l-1.6.176a6.914,6.914,0,0,1-6.658-3.312l-.824-1.363a13.788,13.788,0,0,0-9.444-6.481l-3.511-.613,2.13-15.72.192.033a6.911,6.911,0,0,1,4.725,3.246l.825,1.369a13.836,13.836,0,0,0,13.318,6.606l1.6-.176a6.88,6.88,0,0,1,5.416,1.784l1.064.978a13.757,13.757,0,0,0,14.924,2.466l1.424-.631a6.9,6.9,0,0,1,5.585,0l1.421.629a13.75,13.75,0,0,0,14.924-2.461l1.072-.985a6.871,6.871,0,0,1,5.413-1.78l1.6.176a13.827,13.827,0,0,0,13.313-6.6l.828-1.373A6.909,6.909,0,0,1,165.651,136l.2-.034,2.13,15.72Zm19.227-65.853a7.482,7.482,0,0,1-10.033,3.391L165.7,85.874a3.448,3.448,0,0,0-4.968,3.413c.829,8.737,1.478,14.041,1.982,16.21l5,23.138-3.246.566a13.781,13.781,0,0,0-5.612,2.346l-5.879-36.285a3.448,3.448,0,0,0-6.808,1.1L153,138.533a6.916,6.916,0,0,1-5.457,1.826l-1.6-.176a13.766,13.766,0,0,0-10.839,3.561l-1.075.988a6.862,6.862,0,0,1-7.452,1.229l-1.424-.631a13.778,13.778,0,0,0-2.139-.743V113.37a3.448,3.448,0,1,0-6.9,0v31.218a13.742,13.742,0,0,0-2.139.743l-1.428.633a6.869,6.869,0,0,1-7.455-1.236l-1.066-.98a13.77,13.77,0,0,0-10.841-3.564l-1.593.176a6.916,6.916,0,0,1-5.771-2.137l4.4-26.37a3.448,3.448,0,0,0-6.8-1.136l-3.444,20.624a13.787,13.787,0,0,0-5.315-2.14l-3.244-.566,5-23.139c.507-2.181,1.154-7.483,1.979-16.207a3.448,3.448,0,0,0-4.967-3.412l-7.958,3.955a7.466,7.466,0,0,1-10.033-3.389,7.528,7.528,0,0,1,3.382-10.068L78.659,66.52a3.45,3.45,0,0,0,1.9-2.824C81.2,55.444,81.9,45.585,81.9,44.633a37.664,37.664,0,0,1,52.473-34.7,15.594,15.594,0,0,0,20.9,22.681,37.513,37.513,0,0,1,1.949,12.021c0,.972.709,10.826,1.344,19.061a3.448,3.448,0,0,0,1.9,2.822l19.836,9.858a7.514,7.514,0,0,1,3.383,10.068Z" transform="translate(-47.769 0)" fill="#fff"/>
          <g id="Group_74" data-name="Group 74" transform="translate(57.586 41.487)">
            <path id="Path_28" data-name="Path 28" d="M218.223,134.053a3.448,3.448,0,0,1-3.448-3.448v-6.84a3.448,3.448,0,0,1,6.9,0v6.84A3.448,3.448,0,0,1,218.223,134.053Z" transform="translate(-214.775 -120.316)" fill="#fff"/>
          </g>
          <g id="Group_75" data-name="Group 75" transform="translate(79.102 41.487)">
            <path id="Path_29" data-name="Path 29" d="M280.623,134.053a3.448,3.448,0,0,1-3.448-3.448v-6.84a3.448,3.448,0,0,1,6.9,0v6.84A3.448,3.448,0,0,1,280.623,134.053Z" transform="translate(-277.175 -120.316)" fill="#fff"/>
          </g>
          <path id="Path_30" data-name="Path 30" d="M227.549,202.728a15.081,15.081,0,0,1-15.064-15.064v-4.988a3.448,3.448,0,0,1,3.448-3.448h23.232a3.448,3.448,0,0,1,3.448,3.448v4.988A15.081,15.081,0,0,1,227.549,202.728Zm-8.168-16.6v1.54a8.177,8.177,0,0,0,8.168,8.167h0a8.177,8.177,0,0,0,8.168-8.167v-1.54Z" transform="translate(-155.689 -117.428)" fill="#fff"/>
        </g>
      </g>
    </g>
  </g>
</svg>
