<svg xmlns="http://www.w3.org/2000/svg" width="232" height="232" viewBox="0 0 232 232">
  <g id="grass" transform="translate(-868 -330)">
    <g id="Group_14" data-name="Group 14" transform="translate(504 252)">
      <circle id="Ellipse_3" data-name="Ellipse 3" cx="116" cy="116" r="116" transform="translate(364 78)" fill="#467726"/>
      <circle id="Ellipse_4" data-name="Ellipse 4" cx="116" cy="116" r="116" transform="translate(364 78)" fill="#467726"/>
    </g>
    <g id="grass-2" data-name="grass" transform="translate(905.313 355)">
      <g id="Group_85" data-name="Group 85" transform="translate(0 0)">
        <path id="Path_36" data-name="Path 36" d="M3.06,156.717h150.6a3.061,3.061,0,1,0,0-6.122h-9.3a70.864,70.864,0,0,1-5.612-19.141,3.061,3.061,0,0,0-6.055.9,77.726,77.726,0,0,0,4.988,18.24H117.629l-2.409-23.319a139.763,139.763,0,0,1-.829-17.584C119.947,94.456,131.117,80.065,145.773,69c-2.312,5.314-9.536,16.269-12.69,34.912a3.061,3.061,0,0,0,6.036,1.021c3.259-19.262,10.861-29.44,17.28-43.578a3.061,3.061,0,0,0-4.317-3.985A106.893,106.893,0,0,0,115.687,93a139.707,139.707,0,0,1,29.119-67.821A3.061,3.061,0,0,0,140.9,20.6,125.205,125.205,0,0,0,93.093,69.338C92.6,66.259,81.373,2.53,81.373,2.53a3.061,3.061,0,0,0-6.03,0S64.084,66.47,63.573,69.652A125.209,125.209,0,0,0,15.6,20.605a3.061,3.061,0,0,0-3.908,4.57A139.768,139.768,0,0,1,40.742,92.531,107.126,107.126,0,0,0,4.634,57.369,3.061,3.061,0,0,0,.318,61.354l9.124,18.4c11.416,23.019,12.483,49.968,2.919,70.846H3.06a3.061,3.061,0,1,0,0,6.122Zm127.33-121.8a145.037,145.037,0,0,0-21.258,93.012l2.342,22.667H99.77a543.627,543.627,0,0,0-5.1-70.735A118.336,118.336,0,0,1,130.39,34.916ZM71.22,61.265l7.138-40.549S87.6,73.543,88.48,79.779A537.147,537.147,0,0,1,93.653,150.6H63.063a537.7,537.7,0,0,1,5.121-70.447c.888-6.336,1.908-12.684,3.035-18.883ZM26.1,34.914A118.283,118.283,0,0,1,62,80.235a544.049,544.049,0,0,0-5.049,70.36H45.021l2.339-22.643A145.226,145.226,0,0,0,26.1,34.914ZM14.927,77.029,10.945,69C25.388,79.913,36.469,94.076,42.092,109.07a139.644,139.644,0,0,1-.819,18.229l-2.407,23.3H19.04c9.107-22.132,7.649-49.847-4.113-73.566Z" transform="translate(0.001 0)" fill="#fff"/>
        <circle id="Ellipse_5" data-name="Ellipse 5" cx="3" cy="3" r="3" transform="translate(131.688 115)" fill="#fff"/>
      </g>
    </g>
  </g>
</svg>
