<svg xmlns="http://www.w3.org/2000/svg" width="232" height="232" viewBox="0 0 232 232">
  <g id="ground" transform="translate(-1120 -330)">
    <g id="Group_15" data-name="Group 15" transform="translate(756 252)">
      <circle id="Ellipse_3" data-name="Ellipse 3" cx="116" cy="116" r="116" transform="translate(364 78)" fill="#604817"/>
      <circle id="Ellipse_4" data-name="Ellipse 4" cx="116" cy="116" r="116" transform="translate(364 78)" fill="#604817"/>
    </g>
    <g id="soil" transform="translate(1154.975 360)">
      <g id="Group_87" data-name="Group 87" transform="translate(0 0)">
        <path id="Path_50" data-name="Path 50" d="M129.849.9a3.061,3.061,0,0,0-4.328,0l-6.5,6.493a21.461,21.461,0,0,0-2.007,27.981L80.862,71.5,63.541,54.184a3.062,3.062,0,0,0-4.329,0L45.466,67.93c-21.441,21.441-6.312,48.192-6.307,48.224a3.054,3.054,0,0,0,.772.965,25.875,25.875,0,0,0-9.456,13.449c-1.269-.118-2.552-.174-3.539-.174-12.642,0-24.474,10.829-26.875,22.654a3.061,3.061,0,0,0,3,3.67H64.584a3.061,3.061,0,1,0,0-6.122H7.212c3.335-7.832,11.738-14.08,19.723-14.08a29.613,29.613,0,0,1,5.208.464,3.062,3.062,0,0,0,3.673-2.452,19.9,19.9,0,0,1,38.791-1.7,3.062,3.062,0,0,0,5.084,1.4,24.488,24.488,0,0,1,36.865,3.229,3.062,3.062,0,0,0,3.789.968,24.256,24.256,0,0,1,9.435-1.909c7.985,0,16.388,6.248,19.724,14.08H92.132a3.061,3.061,0,1,0,0,6.122h61.524a3.061,3.061,0,0,0,3-3.67c-2.407-11.854-14.261-22.654-26.875-22.654a31.707,31.707,0,0,0-9.757,1.578,30.618,30.618,0,0,0-41.1-5.06,26.034,26.034,0,0,0-4.428-6.539,39.68,39.68,0,0,0,14.257-9.156L102.5,97.471a3.062,3.062,0,0,0,0-4.329L85.191,75.833,121.346,39.7a21.454,21.454,0,0,0,27.983-2.007l6.492-6.5a3.061,3.061,0,0,0,0-4.328ZM96.006,95.307,84.424,106.889A33.567,33.567,0,0,1,68.8,115.741a26.048,26.048,0,0,0-22.36-2.124c-.775-.361-1.138-.556-2.257-1.112,0-.031-12.645-21.986,5.615-40.247L61.376,60.676,76.532,75.832,59.213,93.142a3.061,3.061,0,1,0,4.327,4.33L80.861,80.161ZM145,33.364a15.326,15.326,0,0,1-21.645,0h0l0,0a15.326,15.326,0,0,1,0-21.644l4.331-4.329,21.644,21.644Z" transform="translate(0 0)" fill="#fff"/>
        <circle id="Ellipse_6" data-name="Ellipse 6" cx="3" cy="3" r="3" transform="translate(75.025 151)" fill="#fff"/>
      </g>
    </g>
  </g>
</svg>
