<svg xmlns="http://www.w3.org/2000/svg" width="232" height="232" viewBox="0 0 232 232">
  <g id="ice" transform="translate(-1372 -330)">
    <g id="Group_16" data-name="Group 16" transform="translate(1008 252)">
      <circle id="Ellipse_3" data-name="Ellipse 3" cx="116" cy="116" r="116" transform="translate(364 78)" fill="#51759f"/>
      <circle id="Ellipse_4" data-name="Ellipse 4" cx="116" cy="116" r="116" transform="translate(364 78)" fill="#51759f"/>
    </g>
    <g id="snow_1_" data-name="snow (1)" transform="translate(1394 355)">
      <g id="Group_102" data-name="Group 102" transform="translate(0 0)">
        <path id="Path_78" data-name="Path 78" d="M0,90.773a3.546,3.546,0,0,0,3.546,3.546H29.025L13.8,109.54a3.546,3.546,0,0,0,5.015,5.015L39.055,94.319H57.378l7.156,7.255V112L51.718,124.812H23.1a3.546,3.546,0,0,0,0,7.092H44.627L28.09,148.441a3.546,3.546,0,0,0,5.015,5.015l16.537-16.537v21.526a3.546,3.546,0,0,0,7.092,0V129.827l12.816-12.816H79.972l7.255,7.157v18.323L66.991,162.727a3.546,3.546,0,0,0,5.015,5.015L87.227,152.52V178a3.546,3.546,0,0,0,7.092,0V152.52l15.222,15.222a3.546,3.546,0,1,0,5.015-5.015L94.319,142.491V124.168l7.255-7.156H112l12.815,12.816v28.618a3.546,3.546,0,0,0,7.092,0V136.919l16.537,16.537a3.546,3.546,0,0,0,5.015-5.015L136.919,131.9h21.526a3.546,3.546,0,0,0,0-7.092H129.827L117.012,112V101.574l7.156-7.255h18.323l20.236,20.236a3.546,3.546,0,1,0,5.015-5.015L152.52,94.318h9.523a3.546,3.546,0,0,0,0-7.092H152.52l15.222-15.222a3.546,3.546,0,0,0-5.015-5.015L142.491,87.227H124.168l-7.156-7.255V69.548l12.815-12.815h28.618a3.546,3.546,0,0,0,0-7.092H136.919L153.456,33.1a3.546,3.546,0,0,0-5.015-5.015L131.9,44.626V23.1a3.546,3.546,0,0,0-7.092,0V51.718L112,64.534H101.574l-7.255-7.156V39.054l20.236-20.236A3.546,3.546,0,0,0,109.54,13.8L94.319,29.025V3.546a3.546,3.546,0,0,0-7.092,0V29.025L72.005,13.8a3.546,3.546,0,0,0-5.015,5.015L87.227,39.055V57.378l-7.255,7.156H69.548L56.733,51.718V23.1a3.546,3.546,0,1,0-7.092,0V44.627L33.1,28.09A3.546,3.546,0,0,0,28.089,33.1L44.626,49.641H23.1a3.546,3.546,0,1,0,0,7.092H51.718L64.534,69.548V79.971l-7.156,7.255H39.055L18.818,66.991A3.546,3.546,0,0,0,13.8,72.005L29.025,87.227H3.546A3.546,3.546,0,0,0,0,90.773Zm70.6-6.857a3.546,3.546,0,0,0,1.022-2.49v-9.8h9.8a3.547,3.547,0,0,0,2.49-1.021l6.857-6.763L97.63,70.6a3.546,3.546,0,0,0,2.49,1.021h9.8v9.8a3.545,3.545,0,0,0,1.022,2.49l6.763,6.857-6.763,6.857a3.546,3.546,0,0,0-1.022,2.49v9.8h-9.8a3.547,3.547,0,0,0-2.49,1.021L90.773,117.7l-6.857-6.763a3.546,3.546,0,0,0-2.49-1.021h-9.8v-9.8A3.545,3.545,0,0,0,70.6,97.63l-6.763-6.857Z" transform="translate(0 0)" fill="#fff"/>
        <ellipse id="Ellipse_10" data-name="Ellipse 10" cx="4" cy="3.5" rx="4" ry="3.5" transform="translate(174 87)" fill="#fff"/>
      </g>
    </g>
  </g>
</svg>
