<svg xmlns="http://www.w3.org/2000/svg" width="232" height="232" viewBox="0 0 232 232">
  <g id="poison" transform="translate(-364 -582)">
    <g id="Group_17" data-name="Group 17" transform="translate(0 504)">
      <circle id="Ellipse_3" data-name="Ellipse 3" cx="116" cy="116" r="116" transform="translate(364 78)" fill="#6610c8"/>
      <circle id="Ellipse_4" data-name="Ellipse 4" cx="116" cy="116" r="116" transform="translate(364 78)" fill="#6610c8"/>
    </g>
    <g id="toxic" transform="translate(419.059 601)">
      <g id="Group_89" data-name="Group 89">
        <g id="Group_88" data-name="Group 88">
          <path id="Path_51" data-name="Path 51" d="M178.74,57.063l-18.95-9.77V27.012H173.3V20.259H159.79V0H105.765V20.259H92.259v6.753h13.506v20.28l-18.95,9.77A26.9,26.9,0,0,0,72,81.037v87.79a13.5,13.5,0,0,0,13.506,13.506h94.543a13.5,13.5,0,0,0,13.506-13.506V81.037A26.9,26.9,0,0,0,178.74,57.063ZM112.519,6.753h40.519V20.259H112.519ZM186.8,168.827a6.76,6.76,0,0,1-6.753,6.753H85.506a6.76,6.76,0,0,1-6.753-6.753V94.543H186.8Zm0-81.037H78.753V81.037A20.143,20.143,0,0,1,89.91,63.066l22.608-11.658v-24.4h40.519v24.4l22.636,11.673A20.129,20.129,0,0,1,186.8,81.037Z" transform="translate(-72)" fill="#fff"/>
        </g>
      </g>
      <g id="Group_91" data-name="Group 91" transform="translate(47.066 130.674)">
        <g id="Group_90" data-name="Group 90" transform="translate(0 0)">
          <circle id="Ellipse_7" data-name="Ellipse 7" cx="5.5" cy="5.5" r="5.5" transform="translate(-0.124 0.326)" fill="#fff"/>
        </g>
      </g>
      <g id="Group_93" data-name="Group 93" transform="translate(63.132 130.674)">
        <g id="Group_92" data-name="Group 92" transform="translate(0 0)">
          <ellipse id="Ellipse_8" data-name="Ellipse 8" cx="6" cy="5.5" rx="6" ry="5.5" transform="translate(-0.191 0.326)" fill="#fff"/>
        </g>
      </g>
      <g id="Group_95" data-name="Group 95" transform="translate(25.963 100.246)">
        <g id="Group_94" data-name="Group 94">
          <path id="Path_52" data-name="Path 52" d="M194.5,293.02a4.709,4.709,0,0,0-.338.509l-7.1-7.1c4.725-3.209,5.061-4.806,4.949-12.014l-.04-4.339a19.109,19.109,0,0,0-4.578-12.186l6.766-6.766a4.737,4.737,0,0,0,.338.508,5.065,5.065,0,0,0,7.162-7.162,4.977,4.977,0,0,0-4.092-1.385,4.976,4.976,0,0,0-1.384-4.092,5.065,5.065,0,0,0-7.162,7.164,4.958,4.958,0,0,0,.509.338l-7.012,7.012a23.3,23.3,0,0,0-28.377,0l-7.014-7.014a5.013,5.013,0,0,0,.509-.338,5.065,5.065,0,0,0-7.162-7.164,4.976,4.976,0,0,0-1.384,4.092A4.976,4.976,0,0,0,135,244.472a5.065,5.065,0,1,0,7.162,7.162,4.739,4.739,0,0,0,.338-.508l6.769,6.768a19.111,19.111,0,0,0-4.574,12.184l-.026,4c-.084,7.394.107,9.123,4.92,12.357l-7.089,7.091a4.8,4.8,0,0,0-.338-.509A5.065,5.065,0,1,0,135,300.184a4.982,4.982,0,0,0,4.092,1.384,4.976,4.976,0,0,0,1.384,4.092,5.065,5.065,0,0,0,7.162-7.162,4.713,4.713,0,0,0-.509-.338l4.319-4.32v2.123h33.765v-2.123l4.319,4.319a4.738,4.738,0,0,0-.509.338,5.064,5.064,0,0,0,7.162,7.162,4.976,4.976,0,0,0,1.384-4.092,4.981,4.981,0,0,0,4.092-1.384,5.065,5.065,0,1,0-7.162-7.164Zm-12.254-11.483-3.786,2.489v5.184h-6.753v-6.753h-6.753v6.753H158.2v-5.184l-4.016-2.631c-2.826-1.8-2.826-1.8-2.763-7.241l.026-4.075c0-8.24,9.074-14.634,16.883-14.634s16.889,6.394,16.889,14.634c0,1.738.023,3.2.043,4.441C185.337,279.545,185.337,279.545,182.244,281.536Z" transform="translate(-133.514 -237.511)" fill="#fff"/>
        </g>
      </g>
    </g>
  </g>
</svg>
