<svg xmlns="http://www.w3.org/2000/svg" width="232" height="232" viewBox="0 0 232 232">
  <g id="psychic" transform="translate(-616 -582)">
    <g id="Group_18" data-name="Group 18" transform="translate(252 504)">
      <circle id="Ellipse_3" data-name="Ellipse 3" cx="116" cy="116" r="116" transform="translate(364 78)" fill="#d90994"/>
      <circle id="Ellipse_4" data-name="Ellipse 4" cx="116" cy="116" r="116" transform="translate(364 78)" fill="#d90994"/>
    </g>
    <g id="psychic-2" data-name="psychic" transform="translate(636 574.472)">
      <g id="Group_98" data-name="Group 98" transform="translate(0 48.528)">
        <g id="Group_97" data-name="Group 97">
          <g id="Group_96" data-name="Group 96">
            <path id="Path_56" data-name="Path 56" d="M168.655,151.658l-2.195-5.252a45.015,45.015,0,0,0-26.786,32.526l5.577,1.141A39.325,39.325,0,0,1,168.655,151.658Z" transform="translate(-86.66 -109.256)" fill="#fff"/>
            <path id="Path_57" data-name="Path 57" d="M276.316,139.473a44.994,44.994,0,0,0-5.954-1.194l-.74,5.644a39.259,39.259,0,0,1,5.2,1.043Z" transform="translate(-167.285 -104.213)" fill="#fff"/>
            <path id="Path_58" data-name="Path 58" d="M299.714,147.195a44.994,44.994,0,0,0-5.535-2.5l-1.986,5.335a39.325,39.325,0,0,1,4.832,2.182Z" transform="translate(-181.289 -108.194)" fill="#fff"/>
            <path id="Path_59" data-name="Path 59" d="M328.192,180.562l5.329-2a45.483,45.483,0,0,0-17.459-21.819l-3.129,4.755A39.747,39.747,0,0,1,328.192,180.562Z" transform="translate(-194.157 -115.668)" fill="#fff"/>
            <path id="Path_60" data-name="Path 60" d="M313.6,337.118l3.162,4.734a45.4,45.4,0,0,0,4.81-3.7l-3.767-4.268A39.67,39.67,0,0,1,313.6,337.118Z" transform="translate(-194.571 -225.574)" fill="#fff"/>
            <path id="Path_61" data-name="Path 61" d="M345.409,301.142l4.9,2.9a45.123,45.123,0,0,0,2.721-5.389l-5.242-2.218A39.481,39.481,0,0,1,345.409,301.142Z" transform="translate(-214.307 -202.341)" fill="#fff"/>
            <path id="Path_62" data-name="Path 62" d="M331.387,320.722l4.133,3.915a45.444,45.444,0,0,0,3.87-4.675l-4.618-3.328A39.873,39.873,0,0,1,331.387,320.722Z" transform="translate(-205.607 -214.873)" fill="#fff"/>
            <path id="Path_63" data-name="Path 63" d="M224.622,217.956l15.825-27.4h-8.019a36.347,36.347,0,1,0-35.844,42.38h2.846V216.317h-2.846a19.73,19.73,0,1,1,18.781-25.764H208.8Zm-28.037-46.792a25.423,25.423,0,0,0-2.846,50.687v5.258a30.655,30.655,0,1,1,33.36-33.442l.245,2.578h3.242l-5.963,10.327-5.962-10.327h3.551L221.75,193A25.533,25.533,0,0,0,196.585,171.164Z" transform="translate(-99.419 -117.839)" fill="#fff"/>
            <path id="Path_64" data-name="Path 64" d="M192.839,166.587a175.812,175.812,0,0,0-27.867-25.839,146.621,146.621,0,0,0-30.306-17.786c-12.722-5.412-25.339-8.156-37.5-8.156s-24.778,2.744-37.5,8.156A146.606,146.606,0,0,0,29.36,140.748,175.826,175.826,0,0,0,1.494,166.587L0,168.4l1.494,1.811a175.819,175.819,0,0,0,27.867,25.839,146.624,146.624,0,0,0,30.306,17.786c12.722,5.412,25.339,8.156,37.5,8.156s24.777-2.744,37.5-8.156a146.622,146.622,0,0,0,30.306-17.786,175.9,175.9,0,0,0,27.867-25.839l1.494-1.811ZM32.885,191.575A180.086,180.086,0,0,1,7.461,168.4,179.7,179.7,0,0,1,32.776,145.3,142.184,142.184,0,0,1,61.55,128.386a53.519,53.519,0,0,0,0,80.023A142.064,142.064,0,0,1,32.885,191.575ZM97.166,216.3a47.9,47.9,0,1,1,47.9-47.9A47.953,47.953,0,0,1,97.166,216.3Zm64.39-24.8a142.2,142.2,0,0,1-28.775,16.916,53.519,53.519,0,0,0,0-80.023,142.075,142.075,0,0,1,28.664,16.834A180.057,180.057,0,0,1,186.872,168.4,179.657,179.657,0,0,1,161.557,191.493Z" transform="translate(0 -89.65)" fill="#fff"/>
            <path id="Path_65" data-name="Path 65" d="M405.9,198.278l-3.463,4.518a151.265,151.265,0,0,1,17.37,15.588l4.127-3.922A157.036,157.036,0,0,0,405.9,198.278Z" transform="translate(-249.69 -141.44)" fill="#fff"/>
            <path id="Path_66" data-name="Path 66" d="M97.653,304.235c1.533,1.2,3.1,2.368,4.644,3.483l3.325-4.62c-1.489-1.072-2.992-2.2-4.467-3.35Z" transform="translate(-60.588 -204.396)" fill="#fff"/>
            <path id="Path_67" data-name="Path 67" d="M81.847,284.055l-3.772,4.264c1.447,1.28,2.932,2.546,4.412,3.762l3.613-4.4C84.674,286.51,83.242,285.289,81.847,284.055Z" transform="translate(-48.441 -194.659)" fill="#fff"/>
            <path id="Path_68" data-name="Path 68" d="M47.992,251.2l-4.372,3.646a126.057,126.057,0,0,0,10.214,10.494l3.873-4.172A122.926,122.926,0,0,1,47.992,251.2Z" transform="translate(-27.064 -174.274)" fill="#fff"/>
            <path id="Path_69" data-name="Path 69" d="M234.5,78.15l.68,5.652a62.857,62.857,0,0,1,7.48-.447A61.487,61.487,0,0,1,268.3,88.888l2.357-5.182a67.156,67.156,0,0,0-27.995-6.044A68.581,68.581,0,0,0,234.5,78.15Z" transform="translate(-145.493 -66.605)" fill="#fff"/>
            <path id="Path_70" data-name="Path 70" d="M332.118,103.218c1.6.844,3.178,1.768,4.7,2.749l3.089-4.782c-1.656-1.07-3.381-2.08-5.126-3Z" transform="translate(-206.061 -79.337)" fill="#fff"/>
            <path id="Path_71" data-name="Path 71" d="M360.359,115.721c-1.484-1.3-3.044-2.55-4.634-3.715l-3.363,4.593c1.458,1.067,2.886,2.212,4.246,3.4Z" transform="translate(-218.621 -87.913)" fill="#fff"/>
            <path id="Path_72" data-name="Path 72" d="M157.869,393.675l-3.069,4.794a67.457,67.457,0,0,0,36.444,10.64v-5.693A61.774,61.774,0,0,1,157.869,393.675Z" transform="translate(-96.045 -262.672)" fill="#fff"/>
            <path id="Path_73" data-name="Path 73" d="M247.274,222.541V212.51h-5.693v10.031a7.076,7.076,0,1,0,9.323,9.323h5.3v-5.693h-5.3A7.115,7.115,0,0,0,247.274,222.541Zm-2.846,7.864a1.387,1.387,0,1,1,1.387-1.387A1.388,1.388,0,0,1,244.427,230.4Z" transform="translate(-147.261 -150.27)" fill="#fff"/>
            <path id="Path_74" data-name="Path 74" d="M140.228,54.221a72.6,72.6,0,0,1,65.706,41.1l5.117-2.493a78.759,78.759,0,0,0-141.646,0l5.117,2.493A72.6,72.6,0,0,1,140.228,54.221Z" transform="translate(-43.062 -48.528)" fill="#fff"/>
            <path id="Path_75" data-name="Path 75" d="M140.229,381.292a72.6,72.6,0,0,1-65.706-41.1l-5.117,2.493a78.759,78.759,0,0,0,141.646,0l-5.117-2.493A72.6,72.6,0,0,1,140.229,381.292Z" transform="translate(-43.063 -229.489)" fill="#fff"/>
          </g>
        </g>
      </g>
    </g>
  </g>
</svg>
