<svg xmlns="http://www.w3.org/2000/svg" width="232" height="232" viewBox="0 0 232 232">
  <g id="rock" transform="translate(-868 -582)">
    <g id="Group_19" data-name="Group 19" transform="translate(504 504)">
      <circle id="Ellipse_3" data-name="Ellipse 3" cx="116" cy="116" r="116" transform="translate(364 78)" fill="#3a2f09"/>
      <circle id="Ellipse_4" data-name="Ellipse 4" cx="116" cy="116" r="116" transform="translate(364 78)" fill="#3a2f09"/>
    </g>
    <g id="cave" transform="translate(892 623)">
      <g id="Group_79" data-name="Group 79" transform="translate(38.989 76.241)">
        <g id="Group_78" data-name="Group 78">
          <path id="Path_31" data-name="Path 31" d="M122.586,309.6l-7.884-13.43a3.016,3.016,0,1,0-5.2,3.053l7.884,13.43a3.016,3.016,0,1,0,5.2-3.054Z" transform="translate(-109.084 -294.681)" fill="#fff"/>
        </g>
      </g>
      <g id="Group_81" data-name="Group 81" transform="translate(0 0)">
        <g id="Group_80" data-name="Group 80">
          <path id="Path_32" data-name="Path 32" d="M179.983,200.171H176.73l-2.418-22.777a3.017,3.017,0,1,0-6,.637l2.351,22.14h-39.7L117.93,176.682a3.016,3.016,0,0,0-1.326-1.253l-19.815-9.57a3.016,3.016,0,0,0-2.907.156L68.4,181.895a3.016,3.016,0,0,0-1.085,1.175l-8.839,17.1H13.192l4.093-25.246L30,146.133l3.278,5.584a3.016,3.016,0,1,0,5.2-3.054l-5.77-9.829,2.278-25.329L51.917,91.1l25.161,13.966-12.154,8.4a3.015,3.015,0,0,0-1.163,1.582l-6.019,19.275a3.016,3.016,0,1,0,5.759,1.8l5.709-18.284,15.192-10.5,33.291-19.115,29.483,32.93-8.561,6.5a3.015,3.015,0,0,0-1.067,1.542l-6.281,21.084a3.017,3.017,0,1,0,5.782,1.722l6-20.139,6.391-4.849,3.017,18.414a3.023,3.023,0,0,0,.262.828l10.6,21.873a3.016,3.016,0,1,0,5.429-2.631l-10.406-21.477-3.75-22.888c0-.005,0-.01,0-.015l0-.02c0-.008,0-.015-.006-.023a2.945,2.945,0,0,0-.084-.352c-.008-.025-.015-.05-.023-.076a3.02,3.02,0,0,0-.331-.694c-.02-.031-.041-.06-.062-.09s-.044-.068-.068-.1c-.037-.049-.077-.093-.117-.139-.014-.016-.025-.034-.039-.05l-33.3-37.188a3.016,3.016,0,0,0-3.749-.6L82.762,101.321,52.553,84.553a3.017,3.017,0,0,0-3.871.819L29.655,110.558a3.016,3.016,0,0,0-.6,1.548l-2.4,26.657L11.611,172.842a3.007,3.007,0,0,0-.218.736L7.081,200.171H3.017a3.017,3.017,0,1,0,0,6.033H179.983a3.017,3.017,0,0,0,0-6.033Zm-114.719,0,7.026-13.593,23.371-14.562,17.458,8.431,10.946,19.725Z" transform="translate(0 -81.372)" fill="#fff"/>
        </g>
      </g>
    </g>
  </g>
</svg>
