<svg xmlns="http://www.w3.org/2000/svg" width="232" height="232" viewBox="0 0 232 232">
  <g id="steel" transform="translate(-1120 -582)">
    <g id="Group_20" data-name="Group 20" transform="translate(756 504)">
      <circle id="Ellipse_3" data-name="Ellipse 3" cx="116" cy="116" r="116" transform="translate(364 78)" fill="#455342"/>
      <circle id="Ellipse_4" data-name="Ellipse 4" cx="116" cy="116" r="116" transform="translate(364 78)" fill="#455342"/>
    </g>
    <g id="write" transform="translate(1284.285 786.333) rotate(180)">
      <path id="Path_55" data-name="Path 55" d="M81.989,43.8H96.131a3.994,3.994,0,0,0,3.994-3.994V19.972A19.994,19.994,0,0,0,80.154,0H22.636A19.994,19.994,0,0,0,2.664,19.972V39.811A3.994,3.994,0,0,0,6.658,43.8H19.8L8.138,60.927a43.835,43.835,0,0,0-2.531,45.258l41.755,79.02a3.994,3.994,0,0,0,7.063,0l41.755-79.02a43.842,43.842,0,0,0-2.531-45.258ZM10.653,19.972A12,12,0,0,1,22.636,7.989H80.154A12,12,0,0,1,92.137,19.972V35.816H10.653ZM50.892,111.6a10.917,10.917,0,1,1,10.917-10.917A10.916,10.916,0,0,1,50.892,111.6Zm38.222-9.146L55.007,167l.359-47.954a18.908,18.908,0,1,0-7.989.2l-.359,48.192L12.67,102.453a35.868,35.868,0,0,1,2.07-37.029L29.462,43.806H72.323L87.044,65.423a35.864,35.864,0,0,1,2.07,37.03Zm0,0" transform="translate(0)" fill="#fff"/>
    </g>
  </g>
</svg>
