<svg xmlns="http://www.w3.org/2000/svg" width="232" height="232" viewBox="0 0 232 232">
  <g id="water" transform="translate(-98 -78)">
    <circle id="Ellipse_2" data-name="Ellipse 2" cx="116" cy="116" r="116" transform="translate(98 78)" fill="#2680eb"/>
    <g id="water-2" data-name="water" transform="translate(111.768 110)">
      <g id="Group_4" data-name="Group 4" transform="translate(41.232 0)">
        <g id="Group_3" data-name="Group 3">
          <path id="Path_7" data-name="Path 7" d="M117.257,18.53c-3.881-5.708-7.306-10.958-10.5-15.753A6.948,6.948,0,0,0,104.928.95a5.948,5.948,0,0,0-8.219,1.826c-2.968,4.794-6.392,9.817-10.5,15.753C68.172,45.013,41.232,84.965,41.232,107.8A60.228,60.228,0,0,0,59.04,150.488a61,61,0,0,0,42.692,17.579,60.8,60.8,0,0,0,60.5-60.5C162.232,84.737,135.292,45.013,117.257,18.53Zm18.949,123.511A48.286,48.286,0,0,1,101.732,156.2a49.248,49.248,0,0,1-34.474-14.155A48.286,48.286,0,0,1,53.1,107.567c0-19.177,25.8-57.3,42.921-82.645,2.055-2.968,3.881-5.936,5.708-8.447,1.826,2.511,3.653,5.479,5.708,8.447,17.123,25.57,42.921,63.468,42.921,82.645A49.248,49.248,0,0,1,136.206,142.041Z" transform="translate(-41.232 0)" fill="#fff"/>
        </g>
      </g>
      <g id="Group_6" data-name="Group 6" transform="translate(113.102 103.444)">
        <g id="Group_5" data-name="Group 5">
          <path id="Path_8" data-name="Path 8" d="M191.169,181.254a5.853,5.853,0,0,0-6.164,5.479,29.388,29.388,0,0,1-4.338,13.926,27.746,27.746,0,0,1-10.5,10.045,6.033,6.033,0,0,0,5.936,10.5,39.56,39.56,0,0,0,14.611-14.155,38.851,38.851,0,0,0,5.936-19.634A5.853,5.853,0,0,0,191.169,181.254Z" transform="translate(-167.152 -181.24)" fill="#fff"/>
        </g>
      </g>
    </g>
  </g>
</svg>
