<svg xmlns="http://www.w3.org/2000/svg" width="811" height="764.316" viewBox="0 0 811 764.316"><g transform="translate(-495 -166)"><g transform="translate(494.783 166)"><g transform="translate(0.217 0)"><g transform="translate(0 251.987)"><g transform="translate(14.294 8.982)"><path d="M9.147,126.98a120.6,120.6,0,0,0,52.509,64.77,120.687,120.687,0,0,0,1.861-83.367A120.67,120.67,0,0,0,11,43.612,120.585,120.585,0,0,0,9.147,126.98Z" transform="translate(-2.606 -43.612)" fill="#ffbf31"/></g><g transform="translate(15.379 40.768)"><path d="M10.093,48.924A121.493,121.493,0,0,0,2.787,77.24a120.957,120.957,0,0,0,57.966,88.035,121.723,121.723,0,0,0,7.306-28.316,121.3,121.3,0,0,0-5.445-23.271A120.57,120.57,0,0,0,10.093,48.924Z" transform="translate(-2.787 -48.924)" fill="#ff8b00"/></g><path d="M79.4,112.96A130.014,130.014,0,0,0,59.873,76.542c-.066-.1-.108-.2-.18-.293-.114-.144-.239-.275-.347-.419q-3.258-4.228-6.852-8.168c-.407-.449-.8-.916-1.2-1.358-2.22-2.376-4.548-4.638-6.941-6.846-.652-.6-1.269-1.239-1.927-1.825-2.25-1.987-4.608-3.848-7-5.679-.832-.64-1.616-1.334-2.465-1.957-3.213-2.346-6.528-4.56-9.969-6.612a9.068,9.068,0,0,0-3.668-1.227,8.843,8.843,0,0,0-3.836.443,8.981,8.981,0,0,0-5.451,5.212c-1.221,3.118-2.274,6.3-3.249,9.508-.257.85-.515,1.693-.754,2.543-.868,3.064-1.64,6.157-2.28,9.281-.156.76-.269,1.52-.413,2.274Q2.6,75.441,2.1,79.5c-.1.79-.215,1.58-.293,2.37-.341,3.255-.551,6.522-.646,9.79-.018.646-.018,1.287-.024,1.927-.042,3.207.012,6.409.209,9.6.018.269.018.539.036.8.012.191.012.383.024.568.012.144.066.275.084.419A129.588,129.588,0,0,0,64.475,206.937a8.933,8.933,0,0,0,4.6,1.269,8.818,8.818,0,0,0,2.9-.485,8.981,8.981,0,0,0,5.451-5.212A130.328,130.328,0,0,0,79.4,112.96ZM64.283,185.27a111.227,111.227,0,0,1-44.365-76.259L49.8,93.279a112.157,112.157,0,0,1,12.62,25.485A112.293,112.293,0,0,1,64.283,185.27Z" transform="translate(4.292 -42.111)" fill="#33363a"/><g transform="translate(165.08 8.982)"><path d="M88.706,126.98A120.6,120.6,0,0,1,36.2,191.749,120.987,120.987,0,0,1,86.857,43.612,120.619,120.619,0,0,1,88.706,126.98Z" transform="translate(-27.804 -43.612)" fill="#ffbf31"/></g><g transform="translate(166.167 40.768)"><path d="M33.431,113.688a121.3,121.3,0,0,0-5.445,23.271,121.646,121.646,0,0,0,7.306,28.316A120.571,120.571,0,0,0,87.8,100.505a122.509,122.509,0,0,0,5.457-23.277,121.319,121.319,0,0,0-7.306-28.3A120.544,120.544,0,0,0,33.431,113.688Z" transform="translate(-27.986 -48.924)" fill="#ff8b00"/></g><path d="M111.342,103.877c.006-.132.006-.269.018-.4.209-3.309.263-6.63.215-9.957-.006-.616-.006-1.233-.024-1.855-.1-3.279-.305-6.552-.646-9.814-.084-.79-.2-1.58-.293-2.37q-.5-4.066-1.251-8.09c-.138-.754-.251-1.508-.407-2.256-.64-3.136-1.418-6.235-2.292-9.311-.233-.832-.485-1.652-.736-2.477-.975-3.219-2.035-6.409-3.261-9.538a8.975,8.975,0,0,0-11.178-5.242,9.6,9.6,0,0,0-1.783.82c-.239.144-.455.317-.694.461Q84.226,46.737,79.723,50c-.808.592-1.556,1.257-2.352,1.861-2.435,1.861-4.835,3.764-7.127,5.786-.61.545-1.185,1.137-1.789,1.693-2.447,2.25-4.829,4.566-7.091,6.989-.371.395-.718.814-1.077,1.215q-3.653,4.012-6.971,8.312c-.1.132-.221.245-.317.383-.066.084-.1.186-.162.269A129.22,129.22,0,0,0,35.281,202.5a8.965,8.965,0,0,0,5.451,5.212,8.818,8.818,0,0,0,2.9.485,8.949,8.949,0,0,0,4.6-1.269,130.113,130.113,0,0,0,56.4-69.575,130.16,130.16,0,0,0,6.57-32.3c.024-.174.09-.329.1-.5C111.324,104.332,111.324,104.1,111.342,103.877ZM48.416,185.27A111.247,111.247,0,0,1,62.9,93.285L92.78,109.017a112,112,0,0,1-5.116,22.541A112.207,112.207,0,0,1,48.416,185.27Z" transform="translate(129.832 -42.111)" fill="#33363a"/><g transform="translate(39.907 469.137)"><path d="M37.906,146.164a8.56,8.56,0,0,1-8.557,8.563H15.443a8.56,8.56,0,0,1-8.557-8.563v-17.1a8.554,8.554,0,0,1,8.557-8.551H29.35a8.554,8.554,0,0,1,8.557,8.551Z" transform="translate(-6.886 -120.511)" fill="#ff8b00"/><g transform="translate(135.984)"><path d="M60.631,146.164a8.56,8.56,0,0,1-8.557,8.563H38.168a8.553,8.553,0,0,1-8.557-8.563v-17.1a8.546,8.546,0,0,1,8.557-8.551H52.075a8.554,8.554,0,0,1,8.557,8.551Z" transform="translate(-29.611 -120.511)" fill="#ff8b00"/></g></g><g transform="translate(30.931 460.161)"><path d="M36.831,171.178H22.919A17.555,17.555,0,0,1,5.386,153.64v-17.1a17.548,17.548,0,0,1,17.533-17.527H36.825a17.548,17.548,0,0,1,17.533,17.527v17.1A17.553,17.553,0,0,1,36.831,171.178ZM23.344,136.963V153.64l13.069-.4V136.963Z" transform="translate(-5.386 -119.011)" fill="#33363a"/><g transform="translate(135.984)"><path d="M59.55,171.178H45.644A17.555,17.555,0,0,1,28.111,153.64v-17.1a17.548,17.548,0,0,1,17.533-17.527H59.55a17.548,17.548,0,0,1,17.533,17.527v17.1A17.559,17.559,0,0,1,59.55,171.178ZM46.063,136.963V153.64l13.069-.4V136.963Z" transform="translate(-28.111 -119.011)" fill="#33363a"/></g></g><g transform="translate(8.976 129.276)"><path d="M219.662,310.263V159.834a96.236,96.236,0,0,0-96.113-96.119H108.763a96.229,96.229,0,0,0-96.119,96.119V310.263A40.851,40.851,0,0,0,1.717,338.082V372.16A41.079,41.079,0,0,0,42.8,413.24H189.5a41.081,41.081,0,0,0,41.091-41.079V338.082A40.907,40.907,0,0,0,219.662,310.263Z" transform="translate(-1.717 -63.715)" fill="#ffbf31"/></g><g transform="translate(8.976 154.642)"><path d="M219.662,289.136V164.073a96.232,96.232,0,0,0-96.113-96.119H108.763a96.229,96.229,0,0,0-96.119,96.119V314.5A40.847,40.847,0,0,0,1.717,342.327v8.7A41.079,41.079,0,0,0,42.8,392.107H189.5a41.081,41.081,0,0,0,41.091-41.079v-8.7A40.881,40.881,0,0,0,219.662,314.5Z" transform="translate(-1.717 -67.954)" fill="#ff8b00"/></g><g transform="translate(0 120.3)"><path d="M196.973,429.691H50.272A50.116,50.116,0,0,1,.217,379.636V345.558a49.8,49.8,0,0,1,10.927-31.134V167.31a105.216,105.216,0,0,1,105.095-105.1h14.786a105.216,105.216,0,0,1,105.1,105.1V314.424a49.789,49.789,0,0,1,10.927,31.128V379.63A50.132,50.132,0,0,1,196.973,429.691ZM116.233,80.173a87.239,87.239,0,0,0-87.143,87.143V317.745a9.033,9.033,0,0,1-2.382,6.1,31.923,31.923,0,0,0-8.545,21.721v34.078a32.142,32.142,0,0,0,32.1,32.1h146.7a32.145,32.145,0,0,0,32.116-32.1V345.564a31.987,31.987,0,0,0-8.551-21.727,8.973,8.973,0,0,1-2.376-6.092V167.31a87.239,87.239,0,0,0-87.143-87.143h-14.78Z" transform="translate(-0.217 -62.215)" fill="#33363a"/></g><g transform="translate(119.079 237.345)"><path d="M302.844,127.875l-108.314-46.1L90.266,161.1l48.5,20.65L20.117,283.953,251,205.492l-54.31-23.11Z" transform="translate(-20.117 -81.775)" fill="#ffbf31"/></g><g transform="translate(119.079 253.813)"><path d="M168.769,182.459l106.154-54.513L172.88,84.527,90.266,147.388l48.5,20.65L20.117,270.237,217.46,203.182Z" transform="translate(-20.117 -84.527)" fill="#ff8b00"/></g><g transform="translate(110.101 228.37)"><path d="M27.595,300.4A8.975,8.975,0,0,1,24.71,282.93l208.634-70.9-32.69-13.913a8.974,8.974,0,0,1-.592-16.24l89.13-45.765-85.9-36.55-87.826,66.81,34.294,14.6a8.976,8.976,0,1,1-7.037,16.516l-48.5-20.65a8.974,8.974,0,0,1-1.915-15.4L196.574,82.111a8.967,8.967,0,0,1,8.946-1.119l108.32,46.094a8.974,8.974,0,0,1,.592,16.24L225.3,189.091,262,204.7a8.972,8.972,0,0,1-.628,16.755L30.485,299.918A8.9,8.9,0,0,1,27.595,300.4Z" transform="translate(-18.617 -80.275)" fill="#33363a"/></g><g transform="translate(82.682 221.169)"><path d="M92.785,111.44a8.947,8.947,0,0,1-6.349-2.627,40.418,40.418,0,0,0-57.08,0A8.974,8.974,0,1,1,16.664,96.121a58.382,58.382,0,0,1,82.464,0,8.973,8.973,0,0,1-6.343,15.319Z" transform="translate(-14.035 -79.072)" fill="#33363a"/></g><g transform="translate(82.676 268.515)"><path d="M92.79,119.381a8.948,8.948,0,0,1-6.349-2.627,40.363,40.363,0,0,0-57.086,0,8.974,8.974,0,0,1-12.692-12.692,58.32,58.32,0,0,1,82.47,0,8.973,8.973,0,0,1-6.343,15.319Z" transform="translate(-14.033 -86.984)" fill="#33363a"/></g></g><g transform="translate(412.242)"><g transform="translate(8.976 8.976)"><path d="M236.381,333.025c-91.506-.048-165.748-74.29-165.772-165.778A165.761,165.761,0,0,1,236.375,1.5c91.559-.036,165.76,74.224,165.76,165.76A165.785,165.785,0,0,1,236.381,333.025Z" transform="translate(-70.609 -1.5)" fill="#e33b47"/></g><g transform="translate(174.741 8.976)"><path d="M98.311,1.5c91.559-.036,165.76,74.224,165.76,165.76A165.78,165.78,0,0,1,98.323,333.025" transform="translate(-98.311 -1.5)" fill="#e33b47"/></g><g transform="translate(27.622 72.914)"><path d="M73.725,37.658h294.24A165.984,165.984,0,0,0,351.6,12.185H90.085A166.575,166.575,0,0,0,73.725,37.658Z" transform="translate(-73.725 -12.185)" fill="#fdffdc"/></g><g transform="translate(174.741 72.914)"><path d="M98.311,37.658h147.12v-.006c-1.155-2.22-2.364-4.4-3.614-6.57a.735.735,0,0,1-.084-.15q-1.876-3.213-3.866-6.337a1.448,1.448,0,0,1-.1-.138q-2.02-3.142-4.171-6.169a.225.225,0,0,0-.06-.072c-1.448-2.052-2.932-4.057-4.476-6.032H98.311Z" transform="translate(-98.311 -12.185)" fill="#fff"/></g><g transform="translate(8.976 123.884)"><path d="M70.609,71.542a165.4,165.4,0,0,0,8.006,50.875h315.53a166,166,0,0,0,0-101.714H78.592A165.432,165.432,0,0,0,70.609,71.542Z" transform="translate(-70.609 -20.703)" fill="#fff"/></g><g transform="translate(174.741 123.89)"><path d="M263.718,61.275c-.108-1.67-.221-3.333-.377-4.991-.1-1.029-.2-2.058-.305-3.082-.162-1.478-.365-2.938-.563-4.41-.15-1.077-.281-2.16-.455-3.237q-.512-3.222-1.143-6.421c-.305-1.5-.646-3-.981-4.506-.185-.8-.365-1.6-.562-2.394-.383-1.574-.8-3.118-1.215-4.673-.174-.646-.365-1.281-.551-1.915-.467-1.658-.957-3.315-1.484-4.943H98.311l.012,101.714H256.088c.527-1.64,1.017-3.3,1.5-4.961.185-.628.365-1.269.539-1.909.431-1.55.832-3.112,1.215-4.673.2-.784.377-1.592.551-2.382.353-1.5.7-3,.993-4.524.419-2.124.808-4.261,1.143-6.409.174-1.083.305-2.178.455-3.267.2-1.46.395-2.908.562-4.374q.161-1.544.305-3.106c.15-1.646.281-3.309.377-4.979.06-.856.12-1.717.162-2.591.108-2.555.185-5.11.185-7.683s-.084-5.14-.185-7.677C263.837,63,263.777,62.136,263.718,61.275Z" transform="translate(-98.311 -20.704)" fill="#fff"/></g><g transform="translate(27.664 251.078)"><path d="M90.122,67.444h261.43a165.56,165.56,0,0,0,16.372-25.485H73.732A166.107,166.107,0,0,0,90.122,67.444Z" transform="translate(-73.732 -41.959)" fill="#fdffdc"/></g><g transform="translate(174.747 251.066)"><path d="M98.312,41.969V67.454H229.048q2.316-2.971,4.488-6.038a.252.252,0,0,0,.048-.072c1.436-2.029,2.842-4.093,4.183-6.181.024-.036.048-.078.072-.12,1.346-2.094,2.639-4.207,3.89-6.361.024-.042.048-.084.072-.12,1.251-2.166,2.465-4.362,3.62-6.594v-.012H98.312Z" transform="translate(-98.312 -41.957)" fill="#fff"/></g><path d="M410.167,228.351c.072-.221.12-.455.191-.676,1.2-3.77,2.262-7.6,3.207-11.471.191-.784.365-1.568.545-2.352.868-3.782,1.64-7.594,2.262-11.459.036-.215.084-.431.12-.646.616-3.967,1.065-7.988,1.412-12.034.078-.928.15-1.855.209-2.783.281-4.033.473-8.084.473-12.183,0-4.159-.2-8.282-.479-12.387-.054-.742-.1-1.49-.162-2.232A174.672,174.672,0,0,0,243.916,0h-.072a174.482,174.482,0,0,0-137.3,66.852,7.614,7.614,0,0,0-.533.545c-.347.443-.634.927-.969,1.37q-3.842,5.017-7.318,10.322-.915,1.4-1.8,2.806-3.465,5.5-6.534,11.268c-.191.365-.431.706-.622,1.077-.108.2-.162.419-.251.622a173.4,173.4,0,0,0-10.891,26.066c-.024.072-.078.126-.1.2-.06.186-.1.371-.156.557q-1.831,5.745-3.261,11.669c-.174.718-.335,1.436-.5,2.154-.886,3.848-1.675,7.731-2.3,11.669-.03.174-.066.347-.1.527-.622,3.973-1.065,8-1.412,12.052-.078.933-.15,1.861-.215,2.794-.281,4.027-.473,8.078-.473,12.177s.191,8.138.473,12.165c.066.939.138,1.873.215,2.806.347,4.051.8,8.078,1.418,12.052.03.18.066.359.1.539.628,3.943,1.418,7.827,2.31,11.681.168.712.323,1.43.5,2.142.963,3.937,2.041,7.827,3.267,11.657.066.2.1.4.168.6.024.078.078.132.108.209a173.353,173.353,0,0,0,10.968,26.185c.072.156.108.317.185.467.257.491.539.969.8,1.46.545,1.017,1.1,2.017,1.663,3.022.814,1.454,1.64,2.9,2.5,4.332.515.868,1.047,1.723,1.58,2.579q1.445,2.325,2.956,4.608c.479.718.957,1.424,1.442,2.136q1.7,2.468,3.471,4.877c.413.556.826,1.119,1.245,1.669.545.724,1.065,1.466,1.622,2.178.138.174.311.305.461.467a174.62,174.62,0,0,0,137.312,66.93h.012a174.555,174.555,0,0,0,137.216-66.8c.191-.2.413-.377.586-.6.383-.491.7-1.029,1.077-1.52q3.734-4.892,7.127-10.053c.664-1.017,1.316-2.029,1.963-3.058q3.411-5.421,6.433-11.094c.2-.389.455-.748.658-1.137.114-.215.168-.443.263-.658a173.655,173.655,0,0,0,10.855-25.97C410.077,228.507,410.143,228.441,410.167,228.351Zm-27.777,19.657q-2.316,4.371-4.907,8.6c-.551.9-1.137,1.771-1.705,2.657q-2.073,3.222-4.3,6.337c-.473.658-.934,1.328-1.412,1.987H117.656c-.293-.395-.563-.8-.85-1.2q-2.729-3.779-5.236-7.707c-.389-.6-.784-1.2-1.167-1.813q-2.8-4.542-5.278-9.245c-2.238-4.243-4.3-8.593-6.151-13.051H388.72C386.829,239.17,384.705,243.646,382.389,248.008Zm17.922-63.657c-.054.9-.132,1.8-.2,2.7q-.287,3.644-.736,7.27c-.108.844-.2,1.693-.323,2.531a156.734,156.734,0,0,1-3.848,18.742c-.1.347-.2.688-.293,1.035H92.811c-.09-.323-.186-.646-.275-.975a156.707,156.707,0,0,1-3.872-18.807c-.12-.856-.221-1.717-.329-2.579q-.449-3.581-.73-7.181c-.072-.928-.156-1.849-.215-2.783-.2-3.183-.323-6.379-.323-9.58s.126-6.4.323-9.592c.06-.922.138-1.837.209-2.753q.287-3.608.73-7.2c.108-.862.209-1.723.329-2.585a156.676,156.676,0,0,1,3.866-18.807c.084-.311.18-.622.263-.933H394.944a156.782,156.782,0,0,1,4.2,20.375c.048.371.09.748.138,1.119.365,2.794.64,5.607.856,8.419.06.766.12,1.526.168,2.292.2,3.213.323,6.433.323,9.664S400.5,181.156,400.311,184.352ZM98.957,114.909q2.854-6.875,6.331-13.416,2.325-4.4,4.937-8.659c.533-.868,1.1-1.711,1.646-2.567q2.109-3.294,4.386-6.469c.455-.634.892-1.281,1.358-1.9H370.146A157.3,157.3,0,0,1,383,102.534c.06.12.156.2.221.311,2.041,3.949,3.937,7.965,5.631,12.064Zm144.9-96.957h.06a155.661,155.661,0,0,1,110.8,45.914c.024.024.048.054.072.078H133.029A156.293,156.293,0,0,1,243.856,17.952ZM133.083,285.539H354.648a156.419,156.419,0,0,1-221.565,0Z" transform="translate(-69.109 0)" fill="#33363a"/></g></g><g transform="translate(288.203 289.267)"><g transform="translate(62.31)"><path d="M107.986,106.546a8.979,8.979,0,0,1-8.976-8.976V66.293H67.733a8.976,8.976,0,0,1,0-17.952h40.254a8.979,8.979,0,0,1,8.976,8.976V97.57A8.975,8.975,0,0,1,107.986,106.546Z" transform="translate(-58.757 -48.341)" fill="#33363a"/></g><g transform="translate(57.149 0.009)"><path d="M66.873,111.709A8.973,8.973,0,0,1,60.524,96.39l45.418-45.418a8.974,8.974,0,0,1,12.692,12.692L73.216,109.082A8.969,8.969,0,0,1,66.873,111.709Z" transform="translate(-57.895 -48.342)" fill="#33363a"/></g><g transform="translate(38.057 64.623)"><path d="M63.68,76.934A9.072,9.072,0,0,1,57.337,74.3,8.863,8.863,0,0,1,54.7,67.958a9.087,9.087,0,0,1,2.633-6.349,9.376,9.376,0,0,1,12.68,0,9.076,9.076,0,0,1,2.633,6.349,8.989,8.989,0,0,1-8.97,8.976Z" transform="translate(-54.704 -59.14)" fill="#33363a"/></g><g transform="translate(19.029 83.668)"><path d="M60.5,80.16a8.974,8.974,0,0,1-6.349-15.319,9.249,9.249,0,0,1,12.686,0A8.973,8.973,0,0,1,60.5,80.16Z" transform="translate(-51.524 -62.323)" fill="#33363a"/></g><g transform="translate(0 102.695)"><path d="M57.32,83.341a8.874,8.874,0,0,1-6.343-2.633,8.964,8.964,0,0,1,0-12.692,9.261,9.261,0,0,1,12.686,0A8.979,8.979,0,0,1,57.32,83.341Z" transform="translate(-48.344 -65.503)" fill="#33363a"/></g><g transform="translate(65.224 65.242)"><g transform="translate(62.34)"><path d="M118.891,117.449a8.979,8.979,0,0,1-8.976-8.976V77.2H78.638a8.976,8.976,0,0,1,0-17.952h40.254a8.979,8.979,0,0,1,8.976,8.976v40.254A8.979,8.979,0,0,1,118.891,117.449Z" transform="translate(-69.662 -59.244)" fill="#33363a"/></g><g transform="translate(57.161 0.003)"><path d="M77.775,122.623A8.973,8.973,0,0,1,71.426,107.3l45.43-45.43a8.974,8.974,0,0,1,12.692,12.692L84.118,120A8.959,8.959,0,0,1,77.775,122.623Z" transform="translate(-68.797 -59.244)" fill="#33363a"/></g><g transform="translate(38.111 64.62)"><path d="M74.535,87.881a9.086,9.086,0,0,1-6.349-2.633A8.994,8.994,0,0,1,80.932,72.556a8.979,8.979,0,0,1-6.4,15.325Z" transform="translate(-65.613 -70.043)" fill="#33363a"/></g><g transform="translate(19.029 83.65)"><path d="M71.4,91.06a9.083,9.083,0,0,1-6.343-2.633,8.957,8.957,0,0,1,0-12.686,9.249,9.249,0,0,1,12.686,0,9.082,9.082,0,0,1,2.627,6.343A9.279,9.279,0,0,1,77.8,88.427,9.082,9.082,0,0,1,71.4,91.06Z" transform="translate(-62.424 -73.223)" fill="#33363a"/></g><g transform="translate(0 102.704)"><path d="M68.22,94.219a9.117,9.117,0,0,1-6.349-2.627,8.99,8.99,0,0,1-2.627-6.349A9.1,9.1,0,0,1,61.871,78.9a9.315,9.315,0,0,1,12.686,0A8.973,8.973,0,0,1,68.22,94.219Z" transform="translate(-59.244 -76.407)" fill="#33363a"/></g></g></g></g><text transform="translate(986 306)" fill="#33363a" font-size="70" font-family="Lato-Bold, Lato" font-weight="700"><tspan x="0" y="56">oh no!</tspan></text></g></svg>