<?xml version="1.0"?>
<svg xmlns="http://www.w3.org/2000/svg" height="512px" viewBox="-1 0 406 406.44181" width="512px" class=""><g><path d="m380.414062 28.132812c1.746094 0 3.496094-.667968 4.828126-2l14.480468-14.480468c2.664063-2.664063 2.664063-6.988282 0-9.652344-2.667968-2.667969-6.988281-2.667969-9.65625 0l-14.476562 14.480469c-2.667969 2.664062-2.667969 6.984375 0 9.652343 1.332031 1.332032 3.078125 2 4.824218 2zm0 0" data-original="#000000" class="active-path" data-old_color="#000000" fill="#E63950"/><path d="m346.628906 61.917969c1.746094 0 3.492188-.667969 4.824219-2l14.480469-14.480469c2.667968-2.664062 2.667968-6.984375 0-9.652344-2.664063-2.664062-6.988282-2.664062-9.652344 0l-14.480469 14.480469c-2.664062 2.664063-2.664062 6.988281 0 9.652344 1.332031 1.332031 3.078125 2 4.828125 2zm0 0" data-original="#000000" class="active-path" data-old_color="#000000" fill="#E63950"/><path d="m356.28125 26.132812c1.332031 1.332032 3.082031 2 4.828125 2 1.742187 0 3.492187-.667968 4.824219-2 2.667968-2.667968 2.667968-6.988281 0-9.652343l-14.480469-14.480469c-2.664063-2.667969-6.984375-2.667969-9.652344 0-2.664062 2.664062-2.664062 6.988281 0 9.652344zm0 0" data-original="#000000" class="active-path" data-old_color="#000000" fill="#E63950"/><path d="m390.066406 59.917969c1.335938 1.332031 3.082032 2 4.828125 2 1.746094 0 3.492188-.667969 4.828125-2 2.664063-2.664063 2.664063-6.988281 0-9.652344l-14.480468-14.480469c-2.667969-2.664062-6.988282-2.664062-9.652344 0-2.667969 2.667969-2.667969 6.988282 0 9.652344zm0 0" data-original="#000000" class="active-path" data-old_color="#000000" fill="#E63950"/><path d="m403.414062 356.539062c0-.007812 0-.007812 0-.007812-1.632812-5.378906-5.261718-9.804688-10.21875-12.460938-4.96875-2.660156-10.652343-3.226562-16.039062-1.585937-5.386719 1.632813-9.8125 5.261719-12.46875 10.21875-2.644531 4.960937-3.214844 10.660156-1.578125 16.039063 1.632813 5.386718 5.257813 9.8125 10.21875 12.46875 3.097656 1.652343 6.484375 2.492187 9.90625 2.492187 2.054687 0 4.113281-.300781 6.132813-.914063 11.109374-3.363281 17.40625-15.144531 14.046874-26.25zm-18.007812 13.1875c-1.886719.566407-3.886719.378907-5.640625-.554687-1.738281-.933594-3.019531-2.492187-3.589844-4.382813-.574219-1.894531-.375-3.894531.550781-5.640624.933594-1.742188 2.492188-3.023438 4.386719-3.59375.707031-.214844 1.433594-.320313 2.152344-.320313 1.199219 0 2.394531.292969 3.488281.878906 1.742188.933594 3.019532 2.488281 3.59375 4.378907 1.179688 3.90625-1.039062 8.054687-4.941406 9.234374zm0 0" data-original="#000000" class="active-path" data-old_color="#000000" fill="#E63950"/><path d="m42.339844 45.191406c0-11.613281-9.445313-21.058594-21.058594-21.058594s-21.058594 9.445313-21.058594 21.058594c0 11.605469 9.445313 21.054688 21.058594 21.054688s21.058594-9.449219 21.058594-21.054688zm-21.058594 7.398438c-4.085938 0-7.40625-3.316406-7.40625-7.398438 0-4.085937 3.320312-7.40625 7.40625-7.40625s7.40625 3.320313 7.40625 7.40625c0 4.082032-3.320312 7.398438-7.40625 7.398438zm0 0" data-original="#000000" class="active-path" data-old_color="#000000" fill="#E63950"/><path d="m56.132812 338.679688c-2.664062-2.667969-6.984374-2.667969-9.652343 0l-5.234375 5.234374-5.238282-5.234374c-2.664062-2.667969-6.984374-2.667969-9.652343 0-2.664063 2.664062-2.664063 6.984374 0 9.652343l5.234375 5.230469-5.234375 5.234375c-2.664063 2.664063-2.664063 6.988281 0 9.652344 1.335937 1.332031 3.082031 2 4.828125 2s3.492187-.667969 4.824218-2l5.238282-5.234375 5.234375 5.234375c1.335937 1.332031 3.082031 2 4.828125 2s3.492187-.667969 4.824218-2c2.667969-2.664063 2.667969-6.988281 0-9.652344l-5.234374-5.234375 5.234374-5.230469c2.667969-2.667969 2.667969-6.984375 0-9.652343zm0 0" data-original="#000000" class="active-path" data-old_color="#000000" fill="#E63950"/><path d="m108.273438 33.945312c1.335937 1.332032 3.082031 2 4.828124 2 1.746094 0 3.492188-.667968 4.828126-2l5.234374-5.234374 5.234376 5.234374c1.335937 1.332032 3.082031 2 4.828124 2 1.746094 0 3.492188-.667968 4.828126-2 2.664062-2.667968 2.664062-6.988281 0-9.652343l-5.238282-5.234375 5.238282-5.230469c2.664062-2.667969 2.664062-6.988281 0-9.65625-2.667969-2.664063-6.988282-2.664063-9.65625 0l-5.234376 5.234375-5.234374-5.234375c-2.667969-2.664063-6.988282-2.664063-9.65625 0-2.664063 2.667969-2.664063 6.988281 0 9.65625l5.234374 5.230469-5.234374 5.234375c-2.664063 2.667969-2.664063 6.984375 0 9.652343zm0 0" data-original="#000000" class="active-path" data-old_color="#000000" fill="#E63950"/><path d="m370.636719 250.269531c12.75-18.652343 49.453125-79.238281 25.71875-127.359375-.628907-1.273437-1.640625-2.316406-2.894531-2.992187-1.746094-.9375-43.082032-22.46875-96.886719 2.878906-.007813-25.722656-31.796875-50.878906-55.519531-50.878906v6.828125l-.089844-6.828125c-.027344 0-.050782 0-.078125 0-10.859375 0-30.980469.027343-48.886719 9.933593-13.917969 7.699219-23.566406 19.648438-28.886719 35.671876-.234375.070312-.46875.117187-.699219.214843-5.054687 2.113281-9.914062 4.507813-14.613281 7.101563-.558593-.589844-1.210937-1.105469-1.988281-1.476563-54.398438-26.28125-96.359375-4.394531-98.125-3.449219-1.253906.675782-2.265625 1.722657-2.894531 2.992188-23.640625 47.933594 13.339843 109.0625 25.242187 126.65625.140625.210938.296875.40625.460938.59375-.503906 12.6875.582031 25.609375 3.429687 38.503906 15.472657 69.988282 77.726563 117.78125 146.628907 117.78125 10.699218 0 21.574218-1.160156 32.445312-3.558594 21.839844-4.828124 41.8125-14.160156 59.375-27.742187 2.984375-2.304687 3.53125-6.59375 1.226562-9.570313-2.308593-2.988281-6.59375-3.542968-9.574218-1.230468-15.960938 12.335937-34.113282 20.820312-53.972656 25.210937-73.480469 16.265625-146.539063-30.320312-162.792969-103.835937-13.605469-61.527344 16.515625-123.753906 72.082031-151.519532-.734375 5.394532-1.117188 11.113282-1.117188 17.179688 0 13.582031 6.945313 33.972656 20.214844 46.667969 8.332032 7.972656 18.394532 12.144531 29.199219 12.144531.625 0 1.246094-.011719 1.875-.039062 24.472656-1.078126 39.199219-16.476563 40.292969-41.917969 19.347656-2.109375 35.496094-13.078125 42.710937-27.976563 31.148438 19.339844 53.433594 50.617188 61.367188 86.503906 7.171875 32.445313 2.300781 66.320313-13.734375 95.371094-1.820313 3.308594-.617188 7.453125 2.679687 9.28125 1.046875.574219 2.179688.847656 3.292969.847656 2.40625 0 4.742188-1.273437 5.988281-3.527343 13.308594-24.121094 19.613281-51.257813 18.523438-78.460938zm-314.574219-119.238281c7.910156-3.519531 38.679688-14.71875 78.320312 2.148438-5.355468 3.742187-10.425781 7.808593-15.1875 12.160156-22.921874-8.777344-48.675781-5.226563-49.773437-5.085938-3.046875.4375-5.429687 2.859375-5.808594 5.914063-3.917969 31.367187 4.96875 52.359375 13.679688 64.867187-1.789063 5.683594-3.234375 11.492188-4.339844 17.386719-13.308594-23.1875-31.550781-64.433594-16.890625-97.390625zm27.46875 63.671875c-4.726562-9.777344-8.285156-23.339844-6.917969-41.40625 6.902344-.402344 19.578125-.503906 31.855469 2.886719-10.273438 11.515625-18.660156 24.523437-24.9375 38.519531zm166.914062-40.328125c-.136718-.058594-.261718-.136719-.402343-.183594-23.894531-7.988281-41.09375 15.121094-41.808594 16.101563-2.21875 3.03125-1.554687 7.28125 1.472656 9.511719 1.214844.894531 2.632813 1.328124 4.035157 1.328124 2.09375 0 4.160156-.960937 5.503906-2.769531.089844-.125 7.164062-9.5 16.96875-11.675781-.28125 13.863281-5.65625 28.867188-27.300782 29.824219-8.027343.367187-14.898437-2.460938-21.035156-8.332031-11.03125-10.5625-16-27.875-16-36.800782 0-28.394531 8.996094-47.765625 26.734375-57.578125 14.820313-8.203125 32.648438-8.226562 42.273438-8.226562h.082031.085938c16.914062 0 41.867187 19.613281 41.867187 37.230469 0 15.667968-14.007813 28.75-32.476563 31.570312zm56.242188-21.160156c39.710938-16.933594 70.515625-5.683594 78.402344-2.183594 14.625 32.9375-3.945313 74.609375-16.953125 97.410156-.292969-1.542968-.574219-3.089844-.914063-4.628906-.953125-4.304688-2.101562-8.542969-3.417968-12.710938 8.726562-12.496093 17.65625-33.519531 13.730468-64.9375-.378906-3.050781-2.757812-5.472656-5.804687-5.914062-1.101563-.144531-26.921875-3.699219-49.878907 5.128906-4.769531-4.359375-9.832031-8.429687-15.164062-12.164062zm25.867188 23.003906c12.316406-3.421875 25.042968-3.335938 31.980468-2.921875 1.371094 18.109375-2.207031 31.691406-6.953125 41.476563-6.328125-14.074219-14.785156-27.078126-25.027343-38.554688zm0 0" data-original="#000000" class="active-path" data-old_color="#000000" fill="#E63950"/><path d="m337.667969 339.21875c-2.972657-2.324219-7.265625-1.800781-9.578125 1.179688-2.855469 3.65625-5.921875 7.1875-9.109375 10.5-2.613281 2.71875-2.523438 7.039062.1875 9.652343 1.324219 1.273438 3.027343 1.90625 4.734375 1.90625 1.792968 0 3.578125-.699219 4.917968-2.09375 3.515626-3.652343 6.886719-7.539062 10.027344-11.566406 2.320313-2.972656 1.792969-7.257813-1.179687-9.578125zm0 0" data-original="#000000" class="active-path" data-old_color="#000000" fill="#E63950"/><path d="m292.253906 309.457031c28.441406 0 51.574219-25.40625 51.574219-56.632812 0-31.226563-23.132813-56.632813-51.574219-56.632813s-51.574218 25.40625-51.574218 56.632813c0 31.226562 23.132812 56.632812 51.574218 56.632812zm0-99.609375c20.90625 0 37.921875 19.277344 37.921875 42.980469 0 23.699219-17.015625 42.980469-37.921875 42.980469s-37.921875-19.28125-37.921875-42.980469c0-23.703125 17.015625-42.980469 37.921875-42.980469zm0 0" data-original="#000000" class="active-path" data-old_color="#000000" fill="#E63950"/><path d="m292.253906 285.339844c16.492188 0 29.90625-14.589844 29.90625-32.515625s-13.414062-32.511719-29.90625-32.511719c-16.492187 0-29.90625 14.585938-29.90625 32.511719s13.414063 32.515625 29.90625 32.515625zm0-51.375c8.960938 0 16.253906 8.460937 16.253906 18.863281 0 10.398437-7.292968 18.859375-16.253906 18.859375-8.960937 0-16.253906-8.460938-16.253906-18.859375 0-10.402344 7.292969-18.863281 16.253906-18.863281zm0 0" data-original="#000000" class="active-path" data-old_color="#000000" fill="#E63950"/><path d="m148.894531 196.191406c-28.441406 0-51.574219 25.40625-51.574219 56.636719 0 31.226563 23.132813 56.632813 51.574219 56.632813 28.4375 0 51.574219-25.40625 51.574219-56.632813 0-31.230469-23.136719-56.636719-51.574219-56.636719zm0 99.613282c-20.90625 0-37.921875-19.28125-37.921875-42.980469s17.015625-42.980469 37.921875-42.980469 37.917969 19.28125 37.917969 42.980469-17.011719 42.980469-37.917969 42.980469zm0 0" data-original="#000000" class="active-path" data-old_color="#000000" fill="#E63950"/><path d="m148.894531 220.3125c-16.492187 0-29.90625 14.585938-29.90625 32.515625 0 17.925781 13.414063 32.511719 29.90625 32.511719 16.492188 0 29.90625-14.585938 29.90625-32.511719 0-17.929687-13.414062-32.515625-29.90625-32.515625zm0 51.371094c-8.960937 0-16.253906-8.457032-16.253906-18.859375 0-10.398438 7.292969-18.859375 16.253906-18.859375 8.960938 0 16.25 8.460937 16.25 18.859375 0 10.402343-7.289062 18.859375-16.25 18.859375zm0 0" data-original="#000000" class="active-path" data-old_color="#000000" fill="#E63950"/><path d="m217.160156 351.257812c13.152344 0 23.855469-10.699218 23.855469-23.851562v-16.554688c0-3.773437-3.054687-6.828124-6.828125-6.828124h-34.054688c-3.773437 0-6.824218 3.054687-6.824218 6.828124v16.554688c0 13.152344 10.699218 23.851562 23.851562 23.851562zm-10.199218-33.578124h20.398437v9.726562c0 5.625-4.570313 10.199219-10.199219 10.199219-5.625 0-10.199218-4.574219-10.199218-10.199219zm0 0" data-original="#000000" class="active-path" data-old_color="#000000" fill="#E63950"/></g> </svg>
