<svg xmlns="http://www.w3.org/2000/svg" width="134.667" height="139.468" viewBox="0 0 134.667 139.468">
  <g id="avatar" transform="translate(-0.195 0.002)">
    <path id="Path_79" data-name="Path 79" d="M49.235,379.387H43.5a2.223,2.223,0,0,0,0,4.446h5.732a2.223,2.223,0,0,0,0-4.446Zm0,0" transform="translate(-27.71 -255.873)" fill="#fff"/>
    <path id="Path_80" data-name="Path 80" d="M8.149,379.387H2.417a2.223,2.223,0,0,0,0,4.446H8.149a2.223,2.223,0,1,0,0-4.446Zm0,0" transform="translate(0 -255.873)" fill="#fff"/>
    <path id="Path_81" data-name="Path 81" d="M31.762,360.22A2.221,2.221,0,0,0,33.985,358v-5.732a2.223,2.223,0,0,0-4.446,0V358A2.221,2.221,0,0,0,31.762,360.22Zm0,0" transform="translate(-19.79 -236.083)" fill="#fff"/>
    <path id="Path_82" data-name="Path 82" d="M31.762,391.129a2.221,2.221,0,0,0-2.223,2.222v5.733a2.223,2.223,0,0,0,4.446,0v-5.733A2.221,2.221,0,0,0,31.762,391.129Zm0,0" transform="translate(-19.79 -263.792)" fill="#fff"/>
    <path id="Path_83" data-name="Path 83" d="M375.83,379.387a6.855,6.855,0,1,0,6.856,6.857A6.865,6.865,0,0,0,375.83,379.387Zm0,9.266a2.41,2.41,0,1,1,2.411-2.409A2.412,2.412,0,0,1,375.83,388.653Zm0,0" transform="translate(-248.716 -255.873)" fill="#fff"/>
    <path id="Path_84" data-name="Path 84" d="M145.25,72.615l1.909-2.626a56.6,56.6,0,0,0,10.726-29.82l2.353-37.811A2.222,2.222,0,0,0,156.364.736l-24.847,27.73a57.058,57.058,0,0,0-11.984,21.239,45.936,45.936,0,0,0-28.227-1.017c-1.075.3-2.125.652-3.164,1.026A57.1,57.1,0,0,0,76.154,28.467L51.306.738a2.222,2.222,0,0,0-3.874,1.621l2.353,37.811A56.6,56.6,0,0,0,60.511,69.99l1.91,2.627a46.288,46.288,0,0,0,6.459,50.9,2.222,2.222,0,0,0,3.356-2.912,41.849,41.849,0,1,1,13.53,10.311,2.222,2.222,0,0,0-1.923,4.007,46.252,46.252,0,0,0,64.514-54.237,46.7,46.7,0,0,0-3.107-8.068ZM54.221,39.892,52.265,8.469,72.84,31.431A52.587,52.587,0,0,1,84.012,51.424q-2,.944-3.9,2.07c-5.063-13.87-6.94-17-7.913-18.117l-7.978-9.2a4.517,4.517,0,0,0-7.918,3.289l.912,12.52c.079.977.29,3.568,9.8,23.232q-1.154,1.524-2.192,3.154l-.721-.993a52.169,52.169,0,0,1-9.885-27.485ZM70.157,61.486c-7.675-15.986-8.455-19.235-8.5-19.84l-.786-12.558,7.98,9.2c.539.619,2.336,3.6,7.463,17.734a45.8,45.8,0,0,0-6.153,5.46Zm53.5-10.054a52.576,52.576,0,0,1,11.175-20L155.4,8.469l-1.956,31.423a52.164,52.164,0,0,1-9.884,27.485l-.707.972c-.687-1.082-1.427-2.126-2.2-3.145,9.5-19.651,9.714-22.241,9.792-23.236l.912-12.5a4.518,4.518,0,0,0-7.918-3.289l-7.976,9.2c-.973,1.122-2.849,4.246-7.922,18.139-.361-.216-.717-.437-1.087-.645-.921-.518-1.858-.988-2.8-1.438Zm7.7,4.614c5.134-14.16,6.93-17.137,7.47-17.756l8.1-9.148-.912,12.486c-.05.622-.83,3.872-8.505,19.859a46.032,46.032,0,0,0-6.158-5.442Zm0,0" transform="translate(-31.855 0)" fill="#fff"/>
    <path id="Path_85" data-name="Path 85" d="M132.812,385.26a41.731,41.731,0,0,1-3.37-2.6,2.223,2.223,0,1,0-2.892,3.378,46.185,46.185,0,0,0,3.731,2.88,2.223,2.223,0,1,0,2.531-3.655Zm0,0" transform="translate(-84.693 -257.718)" fill="#fff"/>
    <path id="Path_86" data-name="Path 86" d="M12.807,120.847a2.874,2.874,0,1,1-2.874-2.874A2.874,2.874,0,0,1,12.807,120.847Zm0,0" transform="translate(-4.629 -79.566)" fill="#fff"/>
    <path id="Path_87" data-name="Path 87" d="M401.928,216.421a2.874,2.874,0,1,1-2.874-2.874A2.874,2.874,0,0,1,401.928,216.421Zm0,0" transform="translate(-267.066 -144.025)" fill="#fff"/>
    <path id="Path_88" data-name="Path 88" d="M187.734,320.4a2.216,2.216,0,0,0-1.619-.884,2.178,2.178,0,0,0-1.73.645c-5.191,5.191-10.185,2.942-10.44,2.822a2.223,2.223,0,0,0-1.971,3.984c.3.15,6.907,3.343,13.866-2.156a13.387,13.387,0,0,0,8.672,3.286,14.091,14.091,0,0,0,5.257-1.054,2.223,2.223,0,0,0-1.649-4.128,8.892,8.892,0,0,1-10.386-2.516Zm0,0" transform="translate(-115.025 -215.488)" fill="#fff"/>
    <path id="Path_89" data-name="Path 89" d="M264.837,253.192a13.939,13.939,0,0,0,7.075,2.331,7.244,7.244,0,0,0,4.415-1.418c3.922-2.906,4.967-9.817,2.8-18.486-1.7-6.8-6.589-13.678-12.649-13.678-5.451,0-9.72,6.244-9.72,14.217C256.759,241.83,257.676,248.892,264.837,253.192Zm.1-8.322c-1.231,0-3.019-2.4-3.019-6.164s1.788-6.164,3.019-6.164,3.019,2.4,3.019,6.164S266.163,244.87,264.932,244.87Zm1.545-18.482c3.178,0,6.917,4.624,8.339,10.309,1.885,7.534.731,12.454-1.137,13.839-1.806,1.337-4.881-.15-6.555-1.155-.179-.107-.347-.22-.516-.332,3.351-1.056,5.788-5.217,5.788-10.342,0-5.949-3.279-10.61-7.464-10.61a5.574,5.574,0,0,0-1.48.2,4.067,4.067,0,0,1,3.025-1.913Zm0,0" transform="translate(-173.035 -149.686)" fill="#fff"/>
    <path id="Path_90" data-name="Path 90" d="M129.535,236.158c0-7.973-4.269-14.217-9.719-14.217-6.06,0-10.952,6.881-12.65,13.679-2.167,8.668-1.122,15.579,2.8,18.486a7.232,7.232,0,0,0,4.414,1.414,13.932,13.932,0,0,0,7.076-2.329c7.161-4.3,8.078-11.362,8.078-17.034Zm-11.193,2.547c0-3.763,1.788-6.164,3.019-6.164s3.019,2.4,3.019,6.164-1.788,6.164-3.019,6.164S118.342,242.469,118.342,238.705Zm-5.728,11.83c-1.868-1.385-3.022-6.305-1.137-13.839,1.422-5.683,5.161-10.309,8.339-10.309a4.071,4.071,0,0,1,3.025,1.913,5.575,5.575,0,0,0-1.48-.2c-4.184,0-7.464,4.661-7.464,10.61,0,5.125,2.437,9.286,5.788,10.342-.169.112-.337.225-.515.332-1.674,1-4.76,2.482-6.556,1.155Zm0,0" transform="translate(-71.397 -149.686)" fill="#fff"/>
    <path id="Path_91" data-name="Path 91" d="M148,46.921a2.221,2.221,0,0,0,3.142,0l1.7-1.7,1.705,1.7a2.222,2.222,0,0,0,3.142-3.142l-1.705-1.7,1.705-1.7a2.222,2.222,0,0,0-3.142-3.142l-1.705,1.7-1.7-1.7A2.222,2.222,0,0,0,148,40.371l1.7,1.7-1.7,1.7A2.221,2.221,0,0,0,148,46.921Zm0,0" transform="translate(-99.244 -24.67)" fill="#fff"/>
  </g>
</svg>
