<?xml version="1.0" encoding="iso-8859-1"?>
<!-- Generator: Adobe Illustrator 21.0.0, SVG Export Plug-In . SVG Version: 6.00 Build 0)  -->
<svg version="1.1" id="Capa_1" xmlns="http://www.w3.org/2000/svg" xmlns:xlink="http://www.w3.org/1999/xlink" x="0px" y="0px"
	 viewBox="0 0 509.938 509.938" style="enable-background:new 0 0 509.938 509.938;" xml:space="preserve">
<g>
	<circle style="fill:#ECEDEF;" cx="254.969" cy="254.969" r="247.469"/>
	<path style="fill:#DBDCDE;" d="M37.502,254.969c0-131.635,102.782-239.247,232.469-247.004c-4.964-0.297-9.963-0.466-15.001-0.466
		C118.296,7.5,7.5,118.295,7.5,254.969s110.796,247.469,247.469,247.469c5.038,0,10.037-0.169,15.001-0.466
		C140.284,494.216,37.502,386.604,37.502,254.969z"/>
	<path style="fill:#E63950;" d="M502.443,254.966h-172.76c0-41.26-33.45-74.71-74.71-74.71s-74.71,33.45-74.71,74.71H7.503
		c0-136.67,110.79-247.47,247.47-247.47C391.643,7.496,502.443,118.296,502.443,254.966z"/>
	<g>
		<path style="fill:#CC334C;" d="M269.973,7.961c-4.964-0.297-9.962-0.466-15-0.466c-136.68,0-247.47,110.8-247.47,247.47h30.002
			C37.505,123.334,140.281,15.718,269.973,7.961z"/>
	</g>
	<path style="fill:#C1E8E6;" d="M233.596,326.572c-30.844-9.195-53.333-37.775-53.333-71.607c0-41.26,33.45-74.71,74.71-74.71
		s74.71,33.45,74.71,74.71c0,41.26-33.45,74.71-74.71,74.71C247.544,329.676,240.368,328.591,233.596,326.572"/>
	<path style="fill:#98D9D5;" d="M263.597,326.572c-30.844-9.195-53.333-37.775-53.333-71.606c0-36.122,25.638-66.256,59.709-73.202
		c-4.846-0.988-9.863-1.508-15.001-1.508c-41.26,0-74.71,33.45-74.71,74.71c0,33.831,22.489,62.412,53.333,71.606
		c6.773,2.019,13.948,3.104,21.377,3.104c5.148,0,10.174-0.521,15.03-1.513C267.833,327.721,265.694,327.197,263.597,326.572z"/>
</g>
<path d="M393.397,40.815c-3.476-2.25-8.12-1.259-10.372,2.218c-2.252,3.477-1.259,8.12,2.218,10.372
	c66.581,43.124,107.153,115.247,109.579,194.064H336.823c-3.803-41.827-39.051-74.71-81.853-74.71s-78.051,32.883-81.853,74.71
	H15.128c1.869-61.287,26.606-118.633,70.158-162.184C130.61,39.961,190.872,15,254.97,15c36.928,0,72.345,8.162,105.267,24.259
	c3.718,1.82,8.212,0.277,10.031-3.443c1.82-3.721,0.278-8.213-3.443-10.032C331.834,8.675,294.2,0,254.97,0
	C186.865,0,122.836,26.521,74.679,74.679C26.521,122.836,0,186.864,0,254.969c0,68.104,26.521,132.133,74.679,180.291
	c48.158,48.157,112.186,74.679,180.291,74.679c68.104,0,132.133-26.521,180.29-74.679c48.157-48.158,74.679-112.186,74.679-180.291
	C509.938,168.137,466.372,88.079,393.397,40.815z M424.653,424.653c-45.324,45.325-105.586,70.286-169.684,70.286
	c-64.098,0-124.36-24.961-169.684-70.286c-43.552-43.552-68.288-100.897-70.158-162.184h157.974
	c2,22.126,12.798,42.427,30.323,56.548c3.226,2.6,7.947,2.09,10.546-1.135c2.599-3.226,2.091-7.947-1.135-10.546
	c-15.937-12.84-25.077-31.928-25.077-52.367c0-37.06,30.15-67.21,67.21-67.21c37.06,0,67.21,30.15,67.21,67.21
	c0,37.06-30.15,67.21-67.21,67.21c-6.25,0-12.435-0.855-18.383-2.543c-3.988-1.13-8.132,1.184-9.262,5.168
	c-1.13,3.985,1.184,8.132,5.168,9.262c7.281,2.065,14.843,3.112,22.477,3.112c42.802,0,78.05-32.883,81.853-74.71h157.988
	C492.941,323.756,468.205,381.101,424.653,424.653z"/>
<g>
</g>
<g>
</g>
<g>
</g>
<g>
</g>
<g>
</g>
<g>
</g>
<g>
</g>
<g>
</g>
<g>
</g>
<g>
</g>
<g>
</g>
<g>
</g>
<g>
</g>
<g>
</g>
<g>
</g>
</svg>
